<svg width="24" height="24" viewBox="0 0 24 24" fill="none" xmlns="http://www.w3.org/2000/svg">
<path d="M14 19C14 20.1046 13.1046 21 12 21C10.8954 21 10 20.1046 10 19L10 18.25C10 18.1119 10.1119 18 10.25 18L13.75 18C13.8881 18 14 18.1119 14 18.25L14 19Z" fill="black"/>
<path d="M19 15C19.5523 15 20 15.4477 20 16C20 16.5523 19.5523 17 19 17L18 17L18 15L19 15Z" fill="black"/>
<path d="M5 17C4.44772 17 4 16.5523 4 16C4 15.4477 4.44772 15 5 15L6 15L6 17L5 17Z" fill="black"/>
<path d="M6 14H18V17H6V14Z" fill="black"/>
<path fill-rule="evenodd" clip-rule="evenodd" d="M13.8046 5.27612C16.2365 6.04209 18 8.3151 18 11V17H6V11C6 8.3151 7.76353 6.04209 10.1954 5.27612C10.3867 4.6026 10.6934 3.61326 11 3H13C13.3066 3.61326 13.6133 4.6026 13.8046 5.27612Z" fill="black"/>
</svg>
