<svg width="24" height="24" viewBox="0 0 24 24" fill="none" xmlns="http://www.w3.org/2000/svg">
<path d="M11.0697 4.35872C11.4027 3.51457 12.5973 3.51457 12.9303 4.35872L14.6691 8.76755C14.7707 9.02527 14.9747 9.22927 15.2325 9.33092L19.6413 11.0697C20.4854 11.4027 20.4854 12.5973 19.6413 12.9303L15.2325 14.6691C14.9747 14.7707 14.7707 14.9747 14.6691 15.2325L12.9303 19.6413C12.5973 20.4854 11.4027 20.4854 11.0697 19.6413L9.33092 15.2325C9.22927 14.9747 9.02527 14.7707 8.76755 14.6691L4.35872 12.9303C3.51457 12.5973 3.51457 11.4027 4.35872 11.0697L8.76755 9.33092C9.02527 9.22927 9.22927 9.02527 9.33092 8.76755L11.0697 4.35872Z" fill="black"/>
</svg>
