<svg width="24" height="24" viewBox="0 0 24 24" fill="none" xmlns="http://www.w3.org/2000/svg">
<path fill-rule="evenodd" clip-rule="evenodd" d="M10.2174 4.19934C10.4097 3.5292 10.7048 2.59035 11 2H13C13.2952 2.59035 13.5903 3.5292 13.7826 4.19934C14.6722 4.40177 15.5053 4.75245 16.2547 5.224C16.8646 4.88608 17.7377 4.43063 18.3641 4.22183L19.7783 5.63604C19.5695 6.26247 19.114 7.13555 18.7761 7.74542C19.2476 8.4948 19.5982 9.32789 19.8007 10.2174C20.4708 10.4097 21.4097 10.7048 22 11V13C21.4097 13.2952 20.4708 13.5903 19.8007 13.7826C19.5982 14.6721 19.2476 15.5052 18.7761 16.2546C19.114 16.8645 19.5694 17.7376 19.7782 18.364L18.364 19.7782C17.7376 19.5694 16.8646 19.1139 16.2547 18.776C15.5053 19.2476 14.6722 19.5982 13.7826 19.8007C13.5903 20.4708 13.2952 21.4097 13 22H11C10.7048 21.4097 10.4097 20.4708 10.2174 19.8007C9.32783 19.5982 8.49469 19.2476 7.74528 18.776C7.1354 19.1139 6.26235 19.5694 5.63593 19.7782L4.22171 18.364C4.43053 17.7375 4.88598 16.8645 5.22391 16.2546C4.7524 15.5052 4.40176 14.6721 4.19934 13.7826C3.5292 13.5903 2.59035 13.2952 2 13V11C2.59035 10.7048 3.5292 10.4097 4.19934 10.2174C4.40177 9.32787 4.75242 8.49476 5.22394 7.74537C4.88602 7.1355 4.43058 6.26245 4.22177 5.63604L5.63599 4.22182C6.2624 4.43062 7.13544 4.88606 7.74531 5.22398C8.49471 4.75244 9.32785 4.40177 10.2174 4.19934ZM17 12C17 14.7614 14.7614 17 12 17C9.23858 17 7 14.7614 7 12C7 9.23858 9.23858 7 12 7C14.7614 7 17 9.23858 17 12Z" fill="black"/>
</svg>
