<svg width="24" height="24" viewBox="0 0 24 24" fill="none" xmlns="http://www.w3.org/2000/svg">
<path fill-rule="evenodd" clip-rule="evenodd" d="M16 7.5C16 5.01472 14.2091 3 12 3C9.79086 3 8 5.01472 8 7.5C8 9.20177 8.83967 10.6829 10.0783 11.4477C10.2532 11.5556 10.3418 11.7753 10.2835 11.9724C10.2402 12.1185 10.1246 12.2195 9.97711 12.258C6.85066 13.0726 4.46859 15.7309 4.06161 19.0023C3.99342 19.5503 4.44771 20 5 20H12H19C19.5523 20 20.0066 19.5503 19.9384 19.0023C19.5314 15.7309 17.1493 13.0726 14.0229 12.258C13.8754 12.2195 13.7598 12.1185 13.7165 11.9724C13.6582 11.7753 13.7468 11.5556 13.9216 11.4477C15.1603 10.6829 16 9.20177 16 7.5Z" fill="black"/>
</svg>
