<svg xmlns="http://www.w3.org/2000/svg" viewBox="0 0 24 24"><g fill-rule="evenodd" clip-rule="evenodd"><path d="M5.276 7.559C5.022 7.799 5 7.949 5 8s.022.2.276.441c.258.243.683.508 1.292.752C7.78 9.678 9.524 10 11.5 10s3.72-.322 4.932-.807c.609-.244 1.034-.509 1.292-.752.255-.24.276-.39.276-.441s-.021-.2-.276-.441c-.258-.243-.683-.508-1.292-.752C15.22 6.322 13.476 6 11.5 6s-3.72.322-4.932.807c-.609.244-1.034.509-1.292.752m.55-2.609C7.327 4.35 9.333 4 11.5 4s4.172.35 5.675.95c.748.3 1.42.681 1.923 1.156C19.602 6.582 20 7.222 20 8s-.398 1.418-.902 1.894c-.502.475-1.175.857-1.923 1.156-1.503.6-3.51.95-5.675.95s-4.172-.35-5.675-.95c-.748-.3-1.42-.681-1.923-1.156C3.398 9.418 3 8.778 3 8s.398-1.418.902-1.894c.502-.475 1.175-.856 1.923-1.156m.795 8.619c1.197.558 2.921.931 4.88.931s3.683-.373 4.88-.931C17.66 12.972 18 12.347 18 12h2c0 1.586-1.338 2.71-2.774 3.381-1.517.708-3.542 1.119-5.726 1.119s-4.21-.411-5.726-1.119C4.338 14.711 3 13.586 3 12h2c0 .347.341.972 1.62 1.569"/><path d="M3 16.571V8h2v8.571c0 .317.325.927 1.612 1.515 1.2.549 2.927.914 4.888.914s3.688-.365 4.887-.914C17.676 17.498 18 16.888 18 16.571V8h2v8.571c0 1.577-1.354 2.682-2.78 3.334C15.703 20.598 13.68 21 11.5 21s-4.204-.402-5.72-1.095C4.355 19.253 3 18.148 3 16.571"/></g></svg>