<svg xmlns="http://www.w3.org/2000/svg" viewBox="0 0 24 24"><path fill-rule="evenodd" d="M14.618 19.562a8.02 8.02 0 0 0 4.944-4.945c-1.037.48-2.353.859-3.847 1.098-.24 1.494-.619 2.81-1.098 3.847m-5.235 0a8.02 8.02 0 0 1-4.945-4.945c1.037.48 2.353.859 3.847 1.098.24 1.494.619 2.81 1.098 3.847m.973-3.616c.175.91.406 1.716.672 2.382.307.766.621 1.25.868 1.512q.06.064.104.1.043-.036.104-.1c.247-.261.561-.746.868-1.512.266-.666.497-1.471.672-2.382a25 25 0 0 1-3.288 0m3.564-2.026a22.7 22.7 0 0 1-3.84 0 22.7 22.7 0 0 1 0-3.84 22.7 22.7 0 0 1 3.84 0 22.7 22.7 0 0 1 0 3.84m2.026-.276c.91-.175 1.716-.406 2.382-.672.766-.307 1.25-.621 1.512-.868q.064-.06.1-.104a2 2 0 0 0-.1-.104c-.261-.247-.746-.561-1.512-.868a13 13 0 0 0-2.382-.672 25 25 0 0 1 0 3.288m-.231-5.359c1.494.24 2.81.619 3.847 1.098a8.02 8.02 0 0 0-4.945-4.945c.48 1.037.859 2.353 1.098 3.847M12 2C6.477 2 2 6.477 2 12s4.477 10 10 10 10-4.477 10-10S17.523 2 12 2M9.383 4.438c-.48 1.037-.859 2.353-1.098 3.847-1.494.24-2.81.619-3.847 1.098a8.02 8.02 0 0 1 4.945-4.945m.973 3.616a25 25 0 0 1 3.288 0 13 13 0 0 0-.672-2.382c-.307-.766-.621-1.25-.868-1.512a2 2 0 0 0-.104-.1 2 2 0 0 0-.104.1c-.247.261-.561.746-.868 1.512a13 13 0 0 0-.672 2.382m-2.302 2.302c-.91.175-1.716.406-2.382.672-.766.307-1.25.621-1.512.868q-.064.06-.1.104.037.043.1.104c.261.247.746.561 1.512.868.666.266 1.471.497 2.382.672a25 25 0 0 1 0-3.288" clip-rule="evenodd"/></svg>