<svg xmlns="http://www.w3.org/2000/svg" viewBox="0 0 24 24"><path d="M19.636 5.256A19.7 19.7 0 0 0 15.097 4q-.321.518-.581 1.063a18.8 18.8 0 0 0-5.037 0A11 11 0 0 0 8.897 4a20 20 0 0 0-4.542 1.26C1.483 9.082.705 12.81 1.093 16.485A19.2 19.2 0 0 0 6.66 19q.677-.82 1.192-1.73a12.4 12.4 0 0 1-1.877-.806q.236-.155.46-.311A14.3 14.3 0 0 0 12 17.27c1.924 0 3.824-.382 5.565-1.118q.225.167.46.311-.902.479-1.88.808c.341.605.74 1.184 1.191 1.728a19 19 0 0 0 5.57-2.512c.457-4.263-.78-7.957-3.27-11.232m-11.29 8.97a1.985 1.985 0 0 1-1.982-1.976c0-1.09.865-1.983 1.978-1.983s2.002.894 1.983 1.983c-.02 1.09-.874 1.976-1.98 1.976m7.309 0a1.98 1.98 0 0 1-1.98-1.976c0-1.09.865-1.983 1.98-1.983s1.996.894 1.977 1.983c-.019 1.09-.872 1.976-1.978 1.976"/></svg>