<svg xmlns="http://www.w3.org/2000/svg" viewBox="0 0 24 24"><path fill-rule="evenodd" d="M3.552 6.498a.91.91 0 0 1 0-1.285l1.66-1.661a.91.91 0 0 1 1.286 0l3.03 3.03a.227.227 0 0 0 .389-.16V2.909A.91.91 0 0 1 10.826 2h2.348a.91.91 0 0 1 .91.91v3.306c0 .202.244.304.387.16l2.825-2.824a.91.91 0 0 1 1.286 0l1.66 1.66a.91.91 0 0 1 0 1.286l-3.03 3.03a.227.227 0 0 0 .16.389h3.719a.91.91 0 0 1 .909.909v2.348a.91.91 0 0 1-.91.91h-3.512a.227.227 0 0 0-.16.387l3.03 3.03a.91.91 0 0 1 0 1.287l-1.66 1.66a.91.91 0 0 1-1.286 0l-3.03-3.03a.227.227 0 0 0-.389.16v3.513a.91.91 0 0 1-.909.909h-2.348a.91.91 0 0 1-.91-.91v-3.718a.227.227 0 0 0-.387-.16l-3.237 3.236a.91.91 0 0 1-1.285 0l-1.66-1.66a.91.91 0 0 1 0-1.286l3.03-3.03a.227.227 0 0 0-.161-.389H2.909A.91.91 0 0 1 2 13.174v-2.348a.91.91 0 0 1 .91-.91h3.512a.227.227 0 0 0 .16-.387z" clip-rule="evenodd"/></svg>