<svg xmlns="http://www.w3.org/2000/svg" viewBox="0 0 24 24"><path d="M12 2C6.478 2 2 6.478 2 12c0 4.237 2.636 7.855 6.356 9.312-.088-.791-.167-2.005.035-2.869.181-.78 1.172-4.97 1.172-4.97s-.299-.6-.299-1.485c0-1.39.806-2.428 1.81-2.428.853 0 1.264.64 1.264 1.408 0 .859-.545 2.141-.828 3.33-.236.995.5 1.807 1.48 1.807 1.778 0 3.144-1.874 3.144-4.58 0-2.393-1.72-4.068-4.177-4.068-2.844 0-4.515 2.135-4.515 4.34 0 .86.331 1.781.745 2.283a.3.3 0 0 1 .069.287c-.076.315-.244.995-.278 1.134-.043.183-.145.222-.334.133-1.249-.582-2.03-2.407-2.03-3.874 0-3.154 2.292-6.052 6.608-6.052 3.469 0 6.165 2.472 6.165 5.776 0 3.447-2.174 6.22-5.19 6.22-1.013 0-1.965-.527-2.291-1.148 0 0-.502 1.909-.623 2.377-.226.869-.835 1.958-1.244 2.622.936.288 1.93.445 2.961.445 5.523 0 10-4.477 10-10S17.523 2 12 2"/></svg>