<?xml version="1.0" encoding="UTF-8"?>
<svg width="300px" height="300px" viewBox="0 0 300 300" version="1.1" xmlns="http://www.w3.org/2000/svg" xmlns:xlink="http://www.w3.org/1999/xlink">
    <g id="Page-1" stroke="none" stroke-width="1" fill="none" fill-rule="evenodd">
        <g id="brand-2">
            <g id="fractures" transform="translate(40.000000, 40.000000)">
                <circle id="Oval-29" stroke="#3D4275" stroke-width="30" cx="110" cy="110" r="70"></circle>
                <path d="M179.594753,19.505474 C176.282638,14.634093 176.767722,7.96538217 181.062454,3.67064989 C185.927532,-1.19442739 193.838989,-1.17081887 198.733189,3.72338099 C201.700148,6.69034057 202.877155,10.7661487 202.260178,14.5999059 C202.301824,15.1336746 202.468769,16.3047733 203.137791,16.9737952 C204.023964,17.8599685 205.791037,17.8652416 205.791037,17.8652416 C205.791037,17.8652416 205.7854,17.8686767 205.774444,17.8753333 C209.519811,17.365353 213.461445,18.557099 216.351192,21.4468465 C221.245392,26.3410464 221.269,34.2525036 216.403923,39.1175809 C212.186101,43.3354035 205.678564,43.8788022 200.832513,40.7595677 C182.484627,59.1074544 141.84236,99.7497219 138.580886,103.011194 C135.80408,105.787998 134.41527,107.214951 130.874496,103.674177 C127.333722,100.133403 132.894478,97.3247849 131.498288,95.9285953 C130.102098,94.5324057 127.313601,100.113283 123.800297,96.599979 C120.286994,93.0866755 125.85317,90.2834768 124.41674,88.8470472 C122.98031,87.4106176 120.272293,93.0719752 116.711399,89.5110808 C113.982318,86.7819996 114.578507,84.5624248 117.355312,81.7856195 C120.959544,77.9567489 160.417542,38.6129725 179.594753,19.505474 Z" id="Oval-15" fill="#FFFFFF"></path>
                <path d="M40.64382,200.571329 C43.872423,205.431321 43.3443795,212.050092 39.0596894,216.334782 C34.1727326,221.221739 26.2494102,221.221739 21.3624535,216.334782 C18.4663878,213.438717 17.2865633,209.476315 17.82298,205.711424 C17.8221569,205.607631 17.7955914,203.919302 16.9381445,203.061856 C16.0806975,202.204409 14.3923689,202.177843 14.2885764,202.17702 C10.5236845,202.713437 6.56128325,201.533612 3.66521756,198.637547 C-1.22173919,193.75059 -1.22173919,185.827267 3.66521756,180.940311 C7.95006576,176.655462 14.5691671,176.127538 19.4292092,179.356537 C37.9123943,160.873352 78.5793801,120.206365 81.8489083,116.936839 C84.6382025,114.147547 86.0333728,112.71429 89.5689067,116.249824 C93.1044406,119.785358 87.5269015,122.614832 88.9210248,124.008956 C90.3151481,125.403079 93.1245316,119.805449 96.6326357,123.313553 C100.14074,126.821657 94.5577888,129.64572 95.9920926,131.080024 C97.4263964,132.514327 100.155418,126.836336 103.711043,130.39196 C106.436085,133.117002 105.832363,135.341708 103.04307,138.131001 C99.4294746,141.968437 59.9512374,181.333559 40.64382,200.571329 Z" id="Oval-16" fill="#FFFFFF"></path>
            </g>
        </g>
    </g>
</svg>
