<svg width="24" height="24" viewBox="0 0 24 24" fill="none" xmlns="http://www.w3.org/2000/svg">
<g id="arrow-bar-right">
<g id="Vector">
<path fill-rule="evenodd" clip-rule="evenodd" d="M19 20C19 20.5523 19.4477 21 20 21C20.5523 21 21 20.5523 21 20L21 4C21 3.44772 20.5523 3 20 3C19.4477 3 19 3.44772 19 4L19 20Z" fill="#3014FF"/>
<path d="M14.1716 13L4 13C3.44771 13 3 12.5523 3 12C3 11.4477 3.44771 11 4 11L14.1716 11L10.5858 7.4142C10.1953 7.02367 10.1953 6.39051 10.5858 5.99998C10.9763 5.60946 11.6095 5.60946 12 5.99998L18 12L12 18C11.6095 18.3905 10.9763 18.3905 10.5858 18C10.1953 17.6095 10.1953 16.9763 10.5858 16.5858L14.1716 13Z" fill="#3014FF"/>
</g>
</g>
</svg>
