<svg width="24" height="24" viewBox="0 0 24 24" fill="none" xmlns="http://www.w3.org/2000/svg">
<g id="arrow-corner-up">
<path id="Union" fill-rule="evenodd" clip-rule="evenodd" d="M6.70711 10.4142L9.29289 7.82843L9.29291 12.9142C9.29291 16.7802 12.4269 19.9142 16.2929 19.9142H19.2929C19.8452 19.9142 20.2929 19.4665 20.2929 18.9142C20.2929 18.3619 19.8452 17.9142 19.2929 17.9142H16.2929C13.5315 17.9142 11.2929 15.6756 11.2929 12.9142V7.82844L13.8787 10.4142L14.8787 11.4142C15.2692 11.8047 15.9024 11.8047 16.2929 11.4142C16.6834 11.0237 16.6834 10.3905 16.2929 10L15.2929 9L10.2929 4L5.29289 9L4.29289 10C3.90237 10.3905 3.90237 11.0237 4.29289 11.4142C4.68342 11.8047 5.31658 11.8047 5.70711 11.4142L6.70711 10.4142Z" fill="#3014FF"/>
</g>
</svg>
