<svg width="24" height="24" viewBox="0 0 24 24" fill="none" xmlns="http://www.w3.org/2000/svg">
<g id="arrow-circle-up">
<g id="Vector">
<path fill-rule="evenodd" clip-rule="evenodd" d="M11 10.4142L8.41421 13C8.02369 13.3905 7.39052 13.3905 7 13C6.60948 12.6095 6.60948 11.9763 7 11.5858L12 6.58578L17 11.5858C17.3905 11.9763 17.3905 12.6095 17 13C16.6095 13.3905 15.9763 13.3905 15.5858 13L13 10.4142L13 17C13 17.5523 12.5523 18 12 18C11.4477 18 11 17.5523 11 17L11 10.4142Z" fill="#3014FF"/>
<path fill-rule="evenodd" clip-rule="evenodd" d="M4 12C4 16.4183 7.58172 20 12 20C16.4183 20 20 16.4183 20 12C20 7.58172 16.4183 4 12 4C7.58172 4 4 7.58172 4 12ZM2 12C2 17.5228 6.47715 22 12 22C17.5228 22 22 17.5229 22 12C22 6.47715 17.5229 2 12 2C6.47715 2 2 6.47715 2 12Z" fill="#3014FF"/>
</g>
</g>
</svg>
