<svg width="24" height="24" viewBox="0 0 24 24" fill="none" xmlns="http://www.w3.org/2000/svg">
<g id="arrow-enter">
<path id="Union" d="M20 5C20.5523 5 21 5.44772 21 6V13C21 13.5523 20.5523 14 20 14L6.82843 14L10.4142 17.5858C10.8047 17.9763 10.8047 18.6095 10.4142 19C10.0237 19.3905 9.39053 19.3905 9 19L3 13L9 7.00001C9.39053 6.60949 10.0237 6.60949 10.4142 7.00001C10.8047 7.39054 10.8047 8.0237 10.4142 8.41423L6.82843 12L14.0655 12C14.5697 11.9682 14.9725 11.5626 15 11.0572V6C15 5.44772 15.4477 5 16 5H20Z" fill="#3014FF"/>
</g>
</svg>
