<svg width="24" height="24" viewBox="0 0 24 24" fill="none" xmlns="http://www.w3.org/2000/svg">
<g id="arrow-vector-down">
<path id="Union" fill-rule="evenodd" clip-rule="evenodd" d="M11 10.4598C9.27477 10.0157 8 8.44962 8 6.58578C8 4.37665 9.79086 2.58578 12 2.58578C14.2091 2.58578 16 4.37665 16 6.58578C16 8.44962 14.7252 10.0157 13 10.4598L13 18.1716L15.5858 15.5858C15.9763 15.1953 16.6095 15.1953 17 15.5858C17.3905 15.9763 17.3905 16.6095 17 17L12 22L7 17C6.60948 16.6095 6.60948 15.9763 7 15.5858C7.39053 15.1953 8.02369 15.1953 8.41421 15.5858L11 18.1716L11 10.4598ZM10 6.58578C10 5.48122 10.8954 4.58578 12 4.58578C13.1046 4.58578 14 5.48122 14 6.58578C14 7.69035 13.1046 8.58578 12 8.58578C10.8954 8.58578 10 7.69035 10 6.58578Z" fill="#3014FF"/>
</g>
</svg>
