<svg width="24" height="24" viewBox="0 0 24 24" fill="none" xmlns="http://www.w3.org/2000/svg">
<g id="arrow-4way">
<path id="Union" d="M4 5.41421V9C4 9.55229 3.55229 10 3 10C2.44772 10 2 9.55229 2 9V2H9C9.55229 2 10 2.44772 10 3C10 3.55228 9.55229 4 9 4H5.41421L12 10.5858L18.5858 4L15 4C14.4477 4 14 3.55228 14 3C14 2.44772 14.4477 2 15 2H22V10C22 10.5523 21.5523 11 21 11C20.4477 11 20 10.5523 20 10V5.41421L13.4142 12L20 18.5858L20 15C20 14.4477 20.4477 14 21 14C21.5523 14 22 14.4477 22 15V22L15 22C14.4477 22 14 21.5523 14 21C14 20.4477 14.4477 20 15 20H18.5858L12 13.4142L5.41421 20L9 20C9.55228 20 10 20.4477 10 21C10 21.5523 9.55228 22 9 22H2V15C2 14.4477 2.44772 14 3 14C3.55229 14 4 14.4477 4 15L4 18.5858L10.5858 12L4 5.41421Z" fill="#3014FF"/>
</g>
</svg>
