<svg width="24" height="24" viewBox="0 0 24 24" fill="none" xmlns="http://www.w3.org/2000/svg">
<g id="arrow-bar-down">
<g id="Vector">
<path fill-rule="evenodd" clip-rule="evenodd" d="M4 19C3.44772 19 3 19.4477 3 20C3 20.5523 3.44772 21 4 21L20 21C20.5523 21 21 20.5523 21 20C21 19.4477 20.5523 19 20 19L4 19Z" fill="#3014FF"/>
<path d="M11 14.1716L11 4C11 3.44771 11.4477 3 12 3C12.5523 3 13 3.44771 13 4L13 14.1716L16.5858 10.5858C16.9763 10.1953 17.6095 10.1953 18 10.5858C18.3905 10.9763 18.3905 11.6095 18 12L12 18L6.00001 12C5.60949 11.6095 5.60949 10.9763 6.00001 10.5858C6.39054 10.1953 7.02371 10.1953 7.41423 10.5858L11 14.1716Z" fill="#3014FF"/>
</g>
</g>
</svg>
