<svg width="24" height="24" viewBox="0 0 24 24" fill="none" xmlns="http://www.w3.org/2000/svg">
<g id="arrow-vector-right">
<path id="Union" fill-rule="evenodd" clip-rule="evenodd" d="M10.4598 13C10.0157 14.7252 8.44962 16 6.58578 16C4.37665 16 2.58578 14.2091 2.58578 12C2.58578 9.79086 4.37665 8 6.58578 8C8.44962 8 10.0157 9.27477 10.4598 11L18.1716 11L15.5858 8.41421C15.1953 8.02369 15.1953 7.39052 15.5858 7C15.9763 6.60948 16.6095 6.60948 17 7L22 12L17 17C16.6095 17.3905 15.9763 17.3905 15.5858 17C15.1953 16.6095 15.1953 15.9763 15.5858 15.5858L18.1716 13L10.4598 13ZM6.58578 14C5.48122 14 4.58578 13.1046 4.58578 12C4.58578 10.8954 5.48122 10 6.58578 10C7.69035 10 8.58578 10.8954 8.58578 12C8.58578 13.1046 7.69035 14 6.58578 14Z" fill="#3014FF"/>
</g>
</svg>
