<svg width="24" height="24" viewBox="0 0 24 24" fill="none" xmlns="http://www.w3.org/2000/svg">
<g id="arrows-vertical">
<path id="Vector (Stroke)" fill-rule="evenodd" clip-rule="evenodd" d="M17 16C17.3905 16.3905 17.3905 17.0237 17 17.4142L12 22.4142L7 17.4142C6.60948 17.0237 6.60947 16.3905 7 16C7.39052 15.6095 8.02369 15.6095 8.41421 16L11 18.5858L11 5.41421L8.41421 8C8.02369 8.39052 7.39052 8.39052 7 8C6.60948 7.60947 6.60948 6.97631 7 6.58578L12 1.58578L17 6.58579C17.3905 6.97631 17.3905 7.60947 17 8C16.6095 8.39052 15.9763 8.39052 15.5858 8L13 5.41421L13 18.5858L15.5858 16C15.9763 15.6095 16.6095 15.6095 17 16Z" fill="#3014FF"/>
</g>
</svg>
