<svg width="24" height="24" viewBox="0 0 24 24" fill="none" xmlns="http://www.w3.org/2000/svg">
<g id="arrow-circle-down">
<g id="Vector">
<path fill-rule="evenodd" clip-rule="evenodd" d="M13 13.5858L15.5858 11C15.9763 10.6095 16.6095 10.6095 17 11C17.3905 11.3905 17.3905 12.0237 17 12.4142L12 17.4142L7 12.4142C6.60948 12.0237 6.60948 11.3905 7 11C7.39053 10.6095 8.02369 10.6095 8.41421 11L11 13.5858L11 7C11 6.44772 11.4477 6 12 6C12.5523 6 13 6.44772 13 7L13 13.5858Z" fill="#3014FF"/>
<path fill-rule="evenodd" clip-rule="evenodd" d="M20 12C20 7.58172 16.4183 4 12 4C7.58172 4 4 7.58172 4 12C4 16.4183 7.58172 20 12 20C16.4183 20 20 16.4183 20 12ZM22 12C22 6.47715 17.5228 2 12 2C6.47715 2 2 6.47715 2 12C2 17.5228 6.47715 22 12 22C17.5228 22 22 17.5228 22 12Z" fill="#3014FF"/>
</g>
</g>
</svg>
