<svg width="24" height="24" viewBox="0 0 24 24" fill="none" xmlns="http://www.w3.org/2000/svg">
<g id="arrow-corner-right">
<path id="Union" fill-rule="evenodd" clip-rule="evenodd" d="M13.5858 6.70711L16.1716 9.29289L11.0858 9.29291C7.21979 9.29291 4.08579 12.4269 4.08579 16.2929L4.08579 19.2929C4.08579 19.8452 4.5335 20.2929 5.08579 20.2929C5.63807 20.2929 6.08579 19.8452 6.08579 19.2929L6.08579 16.2929C6.08579 13.5315 8.32436 11.2929 11.0858 11.2929L16.1716 11.2929L13.5858 13.8787L12.5858 14.8787C12.1953 15.2692 12.1953 15.9024 12.5858 16.2929C12.9763 16.6834 13.6095 16.6834 14 16.2929L15 15.2929L20 10.2929L15 5.29289L14 4.29289C13.6095 3.90237 12.9763 3.90237 12.5858 4.29289C12.1953 4.68342 12.1953 5.31658 12.5858 5.70711L13.5858 6.70711Z" fill="#3014FF"/>
</g>
</svg>
