<svg width="24" height="24" viewBox="0 0 24 24" fill="none" xmlns="http://www.w3.org/2000/svg">
<g id="arrows-horizontal">
<path id="Vector (Stroke)" fill-rule="evenodd" clip-rule="evenodd" d="M16 7C16.3905 6.60948 17.0237 6.60948 17.4142 7L22.4142 12L17.4142 17C17.0237 17.3905 16.3905 17.3905 16 17C15.6095 16.6095 15.6095 15.9763 16 15.5858L18.5858 13H5.41421L8 15.5858C8.39052 15.9763 8.39052 16.6095 8 17C7.60948 17.3905 6.97631 17.3905 6.58579 17L1.58579 12L6.58579 7C6.97631 6.60948 7.60948 6.60948 8 7C8.39052 7.39053 8.39053 8.02369 8 8.41421L5.41421 11H18.5858L16 8.41421C15.6095 8.02369 15.6095 7.39052 16 7Z" fill="#3014FF"/>
</g>
</svg>
