<svg width="24" height="24" viewBox="0 0 24 24" fill="none" xmlns="http://www.w3.org/2000/svg">
<g id="arrow-vector-left">
<path id="Union" fill-rule="evenodd" clip-rule="evenodd" d="M13.5402 11C13.9843 9.27477 15.5504 8 17.4142 8C19.6234 8 21.4142 9.79086 21.4142 12C21.4142 14.2091 19.6234 16 17.4142 16C15.5504 16 13.9843 14.7252 13.5402 13L5.82843 13L8.41421 15.5858C8.80474 15.9763 8.80474 16.6095 8.41421 17C8.02369 17.3905 7.39052 17.3905 7 17L2 12L7 7C7.39052 6.60948 8.02369 6.60948 8.41421 7C8.80474 7.39052 8.80474 8.02369 8.41421 8.41421L5.82843 11L13.5402 11ZM17.4142 10C18.5188 10 19.4142 10.8954 19.4142 12C19.4142 13.1046 18.5188 14 17.4142 14C16.3096 14 15.4142 13.1046 15.4142 12C15.4142 10.8954 16.3096 10 17.4142 10Z" fill="#3014FF"/>
</g>
</svg>
