<svg width="24" height="24" viewBox="0 0 24 24" fill="none" xmlns="http://www.w3.org/2000/svg">
<g id="arrow-vector-up">
<path id="Union" fill-rule="evenodd" clip-rule="evenodd" d="M13 13.5402C14.7252 13.9843 16 15.5504 16 17.4142C16 19.6234 14.2091 21.4142 12 21.4142C9.79086 21.4142 8 19.6234 8 17.4142C8 15.5504 9.27477 13.9843 11 13.5402L11 5.82843L8.41421 8.41421C8.02369 8.80474 7.39052 8.80474 7 8.41421C6.60948 8.02369 6.60948 7.39052 7 7L12 2L17 7C17.3905 7.39052 17.3905 8.02369 17 8.41421C16.6095 8.80474 15.9763 8.80474 15.5858 8.41421L13 5.82843L13 13.5402ZM14 17.4142C14 18.5188 13.1046 19.4142 12 19.4142C10.8954 19.4142 10 18.5188 10 17.4142C10 16.3096 10.8954 15.4142 12 15.4142C13.1046 15.4142 14 16.3096 14 17.4142Z" fill="#3014FF"/>
</g>
</svg>
