<svg width="24" height="24" viewBox="0 0 24 24" fill="none" xmlns="http://www.w3.org/2000/svg">
<g id="arrow-circle-left">
<g id="Vector">
<path fill-rule="evenodd" clip-rule="evenodd" d="M10.4142 13L13 15.5858C13.3905 15.9763 13.3905 16.6095 13 17C12.6095 17.3905 11.9763 17.3905 11.5858 17L6.58578 12L11.5858 7C11.9763 6.60948 12.6095 6.60948 13 7C13.3905 7.39053 13.3905 8.02369 13 8.41421L10.4142 11H17C17.5523 11 18 11.4477 18 12C18 12.5523 17.5523 13 17 13H10.4142Z" fill="#3014FF"/>
<path fill-rule="evenodd" clip-rule="evenodd" d="M12 20C16.4183 20 20 16.4183 20 12C20 7.58172 16.4183 4 12 4C7.58172 4 4 7.58172 4 12C4 16.4183 7.58172 20 12 20ZM12 22C17.5228 22 22 17.5228 22 12C22 6.47715 17.5228 2 12 2C6.47715 2 2 6.47715 2 12C2 17.5228 6.47715 22 12 22Z" fill="#3014FF"/>
</g>
</g>
</svg>
