<svg width="24" height="24" viewBox="0 0 24 24" fill="none" xmlns="http://www.w3.org/2000/svg">
<g id="arrow-bar-left">
<g id="Vector">
<path fill-rule="evenodd" clip-rule="evenodd" d="M5 4C5 3.44772 4.55228 3 4 3C3.44772 3 3 3.44772 3 4L3 20C3 20.5523 3.44772 21 4 21C4.55228 21 5 20.5523 5 20L5 4Z" fill="#3014FF"/>
<path d="M9.82843 11L20 11C20.5523 11 21 11.4477 21 12C21 12.5523 20.5523 13 20 13L9.82843 13L13.4142 16.5858C13.8047 16.9763 13.8047 17.6095 13.4142 18C13.0237 18.3905 12.3905 18.3905 12 18L6 12L12 6.00001C12.3905 5.60949 13.0237 5.60949 13.4142 6.00001C13.8047 6.39054 13.8047 7.02371 13.4142 7.41423L9.82843 11Z" fill="#3014FF"/>
</g>
</g>
</svg>
