<svg width="24" height="24" viewBox="0 0 24 24" fill="none" xmlns="http://www.w3.org/2000/svg">
<g id="arrow-bar-up">
<g id="Vector">
<path fill-rule="evenodd" clip-rule="evenodd" d="M20 5C20.5523 5 21 4.55229 21 4C21 3.44772 20.5523 3 20 3L4 3C3.44772 3 3 3.44772 3 4C3 4.55228 3.44772 5 4 5L20 5Z" fill="#3014FF"/>
<path d="M13 9.82843L13 20C13 20.5523 12.5523 21 12 21C11.4477 21 11 20.5523 11 20L11 9.82843L7.4142 13.4142C7.02367 13.8047 6.39051 13.8047 5.99998 13.4142C5.60946 13.0237 5.60946 12.3905 5.99998 12L12 6L18 12C18.3905 12.3905 18.3905 13.0237 18 13.4142C17.6095 13.8047 16.9763 13.8047 16.5858 13.4142L13 9.82843Z" fill="#3014FF"/>
</g>
</g>
</svg>
