<svg width="24" height="24" viewBox="0 0 24 24" fill="none" xmlns="http://www.w3.org/2000/svg">
<g id="arrow-corner-left">
<path id="Union" fill-rule="evenodd" clip-rule="evenodd" d="M10.4142 17.2929L7.82843 14.7071L12.9142 14.7071C16.7802 14.7071 19.9142 11.5731 19.9142 7.70709L19.9142 4.70709C19.9142 4.15481 19.4665 3.70709 18.9142 3.70709C18.3619 3.70709 17.9142 4.15481 17.9142 4.70709L17.9142 7.70709C17.9142 10.4685 15.6756 12.7071 12.9142 12.7071L7.82844 12.7071L10.4142 10.1213L11.4142 9.12132C11.8047 8.73079 11.8047 8.09763 11.4142 7.70711C11.0237 7.31658 10.3905 7.31658 10 7.70711L9 8.70711L4 13.7071L9 18.7071L10 19.7071C10.3905 20.0976 11.0237 20.0976 11.4142 19.7071C11.8047 19.3166 11.8047 18.6834 11.4142 18.2929L10.4142 17.2929Z" fill="#3014FF"/>
</g>
</svg>
