<svg width="24" height="24" viewBox="0 0 24 24" fill="none" xmlns="http://www.w3.org/2000/svg">
<g id="arrow-circle-right">
<g id="Vector">
<path fill-rule="evenodd" clip-rule="evenodd" d="M13.5858 11L11 8.41421C10.6095 8.02369 10.6095 7.39052 11 7C11.3905 6.60948 12.0237 6.60948 12.4142 7L17.4142 12L12.4142 17C12.0237 17.3905 11.3905 17.3905 11 17C10.6095 16.6095 10.6095 15.9763 11 15.5858L13.5858 13L7 13C6.44772 13 6 12.5523 6 12C6 11.4477 6.44772 11 7 11L13.5858 11Z" fill="#3014FF"/>
<path fill-rule="evenodd" clip-rule="evenodd" d="M12 4C7.58172 4 4 7.58172 4 12C4 16.4183 7.58172 20 12 20C16.4183 20 20 16.4183 20 12C20 7.58172 16.4183 4 12 4ZM12 2C6.47715 2 2 6.47715 2 12C2 17.5228 6.47715 22 12 22C17.5228 22 22 17.5228 22 12C22 6.47715 17.5228 2 12 2Z" fill="#3014FF"/>
</g>
</g>
</svg>
