<svg width="24" height="24" viewBox="0 0 24 24" fill="none" xmlns="http://www.w3.org/2000/svg">
<g id="arrow-corner-down">
<path id="Union" fill-rule="evenodd" clip-rule="evenodd" d="M17.2929 13.5858L14.7071 16.1716L14.7071 11.0858C14.7071 7.21979 11.5731 4.08578 7.70709 4.08578L4.70709 4.08578C4.15481 4.08578 3.70709 4.5335 3.70709 5.08578C3.70709 5.63807 4.15481 6.08578 4.70709 6.08578L7.70709 6.08578C10.4685 6.08578 12.7071 8.32436 12.7071 11.0858L12.7071 16.1716L10.1213 13.5858L9.12132 12.5858C8.7308 12.1953 8.09763 12.1953 7.70711 12.5858C7.31658 12.9763 7.31658 13.6095 7.70711 14L8.70711 15L13.7071 20L18.7071 15L19.7071 14C20.0976 13.6095 20.0976 12.9763 19.7071 12.5858C19.3166 12.1953 18.6834 12.1953 18.2929 12.5858L17.2929 13.5858Z" fill="#3014FF"/>
</g>
</svg>
