<svg width="24" height="24" viewBox="0 0 24 24" fill="none" xmlns="http://www.w3.org/2000/svg">
<g id="asterisk">
<path id="asterisk_2" fill-rule="evenodd" clip-rule="evenodd" d="M13 3C13 2.44772 12.5523 2 12 2C11.4477 2 11 2.44772 11 3V8.98223C11 9.20496 10.7307 9.3165 10.5732 9.15901L6.63604 5.22182C6.24551 4.8313 5.61235 4.8313 5.22183 5.22182C4.8313 5.61235 4.8313 6.24551 5.22183 6.63604L9.15901 10.5732C9.3165 10.7307 9.20496 11 8.98223 11H3C2.44772 11 2 11.4477 2 12C2 12.5523 2.44772 13 3 13H8.98223C9.20496 13 9.3165 13.2693 9.15901 13.4268L5.22182 17.364C4.8313 17.7545 4.8313 18.3876 5.22182 18.7782C5.61235 19.1687 6.24551 19.1687 6.63604 18.7782L10.5732 14.841C10.7307 14.6835 11 14.795 11 15.0178V21C11 21.5523 11.4477 22 12 22C12.5523 22 13 21.5523 13 21V15.0178C13 14.795 13.2693 14.6835 13.4268 14.841L17.364 18.7782C17.7545 19.1687 18.3877 19.1687 18.7782 18.7782C19.1687 18.3876 19.1687 17.7545 18.7782 17.364L14.841 13.4268C14.6835 13.2693 14.795 13 15.0178 13H21C21.5523 13 22 12.5523 22 12C22 11.4477 21.5523 11 21 11H15.0178C14.795 11 14.6835 10.7307 14.841 10.5732L18.7782 6.63604C19.1687 6.24551 19.1687 5.61235 18.7782 5.22182C18.3877 4.8313 17.7545 4.8313 17.364 5.22182L13.4268 9.15901C13.2693 9.3165 13 9.20496 13 8.98223V3Z" fill="black"/>
</g>
</svg>
