<svg width="24" height="24" viewBox="0 0 24 24" fill="none" xmlns="http://www.w3.org/2000/svg">
<g id="bars">
<path id="bars_2" fill-rule="evenodd" clip-rule="evenodd" d="M5.14286 6C4.51167 6 4 6.44772 4 7C4 7.55228 4.51167 8 5.14286 8H18.8571C19.4883 8 20 7.55228 20 7C20 6.44772 19.4883 6 18.8571 6H5.14286ZM4 12C4 11.4477 4.51167 11 5.14286 11H18.8571C19.4883 11 20 11.4477 20 12C20 12.5523 19.4883 13 18.8571 13H5.14286C4.51167 13 4 12.5523 4 12ZM4 17C4 16.4477 4.51167 16 5.14286 16H18.8571C19.4883 16 20 16.4477 20 17C20 17.5523 19.4883 18 18.8571 18H5.14286C4.51167 18 4 17.5523 4 17Z" fill="black"/>
</g>
</svg>
