<svg width="24" height="24" viewBox="0 0 24 24" fill="none" xmlns="http://www.w3.org/2000/svg">
<g id="bell">
<path id="bell_2" fill-rule="evenodd" clip-rule="evenodd" d="M18 11C18 8.3151 16.2365 6.04209 13.8046 5.27612C13.6133 4.6026 13.3066 3.61326 13 3H11C10.6934 3.61326 10.3867 4.6026 10.1954 5.27612C7.76353 6.04209 6 8.3151 6 11V14V15H5C4.44772 15 4 15.4477 4 16C4 16.5523 4.44772 17 5 17H6H18H19C19.5523 17 20 16.5523 20 16C20 15.4477 19.5523 15 19 15H18V14V11ZM14 19C14 20.1046 13.1046 21 12 21C10.8954 21 10 20.1046 10 19V18.25C10 18.1119 10.1119 18 10.25 18H13.75C13.8881 18 14 18.1119 14 18.25V19Z" fill="black"/>
</g>
</svg>
