<svg width="24" height="24" viewBox="0 0 24 24" fill="none" xmlns="http://www.w3.org/2000/svg">
<g id="bird">
<path id="Union" d="M8.61401 7.87598C7.93392 5.73263 7.70146 5 5.97002 5V8.97748C5.97002 12.365 7.05683 14.1087 8.26357 15.0063C4 15.3661 4 18.9774 4 18.9774H11.9699C17.5319 18.9996 18.9699 13.9775 18.9699 11.9775C18.9699 11.3873 18.9699 10.5795 18.8929 9.74675L20.9998 9.22001C21.2523 9.15689 21.2523 8.79806 20.9998 8.73494L18.6228 8.14069C18.2576 6.77914 17.5081 5.72111 15.9699 5.97746C14.6789 6.19263 14.1231 7.88933 13.5127 9.75259C13.3238 10.3293 13.1296 10.9221 12.9068 11.4917C11.1685 10.975 9.43116 10.361 8.96997 8.97748C8.83572 8.57472 8.71947 8.20837 8.61401 7.87598Z" fill="black"/>
</g>
</svg>
