<svg width="24" height="24" viewBox="0 0 24 24" fill="none" xmlns="http://www.w3.org/2000/svg">
<g id="book">
<path id="Union" fill-rule="evenodd" clip-rule="evenodd" d="M6 6C6 4.89543 6.89543 4 8 4H11.5H13.5H16V6H13.5H11.5H9C8.44772 6 8 6.44772 8 7C8 7.55228 8.44772 8 9 8H17C17.5523 8 18 8.44772 18 9V20.5C18 20.7761 17.7761 21 17.5 21H7C6.44771 21 6 20.5523 6 20V6Z" fill="black"/>
<path id="Rectangle 946" d="M14 4H16C16.5523 4 17 4.44772 17 5C17 5.55228 16.5523 6 16 6H14V4Z" fill="black"/>
</g>
</svg>
