<svg width="24" height="24" viewBox="0 0 24 24" fill="none" xmlns="http://www.w3.org/2000/svg">
<g id="calendar">
<path id="calendar_2" fill-rule="evenodd" clip-rule="evenodd" d="M5 3.5C5 3.22386 5.22386 3 5.5 3H7.5C7.77614 3 8 3.22386 8 3.5V5H16V3.5C16 3.22386 16.2239 3 16.5 3H18.5C18.7761 3 19 3.22386 19 3.5V5H20C21.1046 5 22 5.89543 22 7V20C22 21.1046 21.1046 22 20 22H4C2.89543 22 2 21.1046 2 20V7C2 5.89543 2.89543 5 4 5H5V3.5ZM4 19V9H20V19C20 19.5523 19.5523 20 19 20H5C4.44772 20 4 19.5523 4 19ZM6.5 11C6.22386 11 6 11.2239 6 11.5V14.5C6 14.7761 6.22386 15 6.5 15H9.5C9.77614 15 10 14.7761 10 14.5V11.5C10 11.2239 9.77614 11 9.5 11H6.5Z" fill="black"/>
</g>
</svg>
