<svg width="24" height="24" viewBox="0 0 24 24" fill="none" xmlns="http://www.w3.org/2000/svg">
<g id="camera">
<path id="camera_2" fill-rule="evenodd" clip-rule="evenodd" d="M8 4H7.5C7.22386 4 7 4.22386 7 4.5V5V7H4C2.89543 7 2 7.89543 2 9L2 18C2 19.1046 2.89543 20 4 20H20C21.1046 20 22 19.1046 22 18V9C22 7.89543 21.1046 7 20 7H17V5V4.5C17 4.22386 16.7761 4 16.5 4H16H8ZM17 13C17 15.7614 14.7614 18 12 18C9.23857 18 7 15.7614 7 13C7 10.2386 9.23857 8 12 8C14.7614 8 17 10.2386 17 13ZM12 16C13.6569 16 15 14.6569 15 13C15 11.3431 13.6569 10 12 10C10.3431 10 9 11.3431 9 13C9 14.6569 10.3431 16 12 16Z" fill="black"/>
</g>
</svg>
