<svg width="24" height="24" viewBox="0 0 24 24" fill="none" xmlns="http://www.w3.org/2000/svg">
<g id="chart">
<path id="Rectangle 928" d="M13 4.5C13 4.22386 13.2239 4 13.5 4H14.5C14.7761 4 15 4.22386 15 4.5V19.5C15 19.7761 14.7761 20 14.5 20H13.5C13.2239 20 13 19.7761 13 19.5V4.5Z" fill="black"/>
<path id="Rectangle 929" d="M17 8.5C17 8.22386 17.2239 8 17.5 8H18.5C18.7761 8 19 8.22386 19 8.5V19.5C19 19.7761 18.7761 20 18.5 20H17.5C17.2239 20 17 19.7761 17 19.5V8.5Z" fill="black"/>
<path id="Rectangle 930" d="M5 8.5C5 8.22386 5.22386 8 5.5 8H6.5C6.77614 8 7 8.22386 7 8.5V19.5C7 19.7761 6.77614 20 6.5 20H5.5C5.22386 20 5 19.7761 5 19.5V8.5Z" fill="black"/>
<path id="Rectangle 931" d="M9 12.5C9 12.2239 9.22386 12 9.5 12H10.5C10.7761 12 11 12.2239 11 12.5V19.5C11 19.7761 10.7761 20 10.5 20H9.5C9.22386 20 9 19.7761 9 19.5V12.5Z" fill="black"/>
</g>
</svg>
