<svg width="24" height="24" viewBox="0 0 24 24" fill="none" xmlns="http://www.w3.org/2000/svg">
<g id="chat">
<path id="comment (Stroke)" fill-rule="evenodd" clip-rule="evenodd" d="M12.8284 15L15 17.1716L17.1716 15H20V7H4V15H12.8284ZM15 20L12 17H4C2.89543 17 2 16.1046 2 15V7C2 5.89543 2.89543 5 4 5H20C21.1046 5 22 5.89543 22 7V15C22 16.1046 21.1046 17 20 17H18L15 20Z" fill="black"/>
<path id="Rectangle 749" d="M7 12C6.44771 12 6 11.5523 6 11C6 10.4477 6.44772 10 7 10L17 10C17.5523 10 18 10.4477 18 11C18 11.5523 17.5523 12 17 12L7 12Z" fill="black"/>
</g>
</svg>
