<svg width="24" height="24" viewBox="0 0 24 24" fill="none" xmlns="http://www.w3.org/2000/svg">
<g id="checkbox-checked">
<path id="Union" fill-rule="evenodd" clip-rule="evenodd" d="M4 7C4 5.34315 5.34315 4 7 4H17C18.6569 4 20 5.34315 20 7V7.5C20 8.05228 20.4477 8.5 21 8.5C21.5523 8.5 22 8.05228 22 7.5V7C22 4.23858 19.7614 2 17 2H7C4.23858 2 2 4.23858 2 7V17C2 19.7614 4.23858 22 7 22H17C19.5927 22 21.7245 20.0267 21.9753 17.5H22V12C22 11.4477 21.5523 11 21 11C20.4477 11 20 11.4477 20 12V17C20 18.6569 18.6569 20 17 20H7C5.34315 20 4 18.6569 4 17V7ZM17.6016 7.14645C17.4063 6.95118 17.0897 6.95118 16.8945 7.14645L10.6484 13.3926L8.03208 10.7763C7.83682 10.581 7.52023 10.581 7.32497 10.7763L6.14645 11.9548C5.95118 12.15 5.95118 12.4666 6.14645 12.6619L8.76274 15.2782L10.2477 16.7631C10.521 17.0365 10.9537 17.047 11.214 16.7867L12.6283 15.3724L18.8744 9.12634C19.0696 8.93108 19.0696 8.6145 18.8744 8.41924L17.6016 7.14645Z" fill="black"/>
</g>
</svg>
