<svg width="24" height="24" viewBox="0 0 24 24" fill="none" xmlns="http://www.w3.org/2000/svg">
<g id="crown">
<path id="crown_2" fill-rule="evenodd" clip-rule="evenodd" d="M6 8C6 9.10457 5.10457 10 4 10C2.89543 10 2 9.10457 2 8C2 6.89543 2.89543 6 4 6C5.10457 6 6 6.89543 6 8ZM12 9C13.1046 9 14 8.10457 14 7C14 5.89543 13.1046 5 12 5C10.8954 5 10 5.89543 10 7C10 8.10457 10.8954 9 12 9ZM20 10C21.1046 10 22 9.10457 22 8C22 6.89543 21.1046 6 20 6C18.8954 6 18 6.89543 18 8C18 9.10457 18.8954 10 20 10ZM8.56867 13.6029C8.23845 13.9496 7.70878 14.0136 7.30548 13.7555L4.76425 12.1291C4.05595 11.6758 3.13845 12.246 3.23131 13.0818L4 20H20L20.7687 13.0818C20.8616 12.246 19.944 11.6758 19.2357 12.1291L16.6945 13.7555C16.2912 14.0136 15.7615 13.9496 15.4313 13.6029L12.7241 10.7603C12.33 10.3466 11.67 10.3466 11.2759 10.7603L8.56867 13.6029Z" fill="black"/>
</g>
</svg>
