<svg width="24" height="24" viewBox="0 0 24 24" fill="none" xmlns="http://www.w3.org/2000/svg">
<g id="curly">
<path id="Vector (Stroke)" fill-rule="evenodd" clip-rule="evenodd" d="M17.2348 3.05608C16.5807 2.38332 15.6875 2 14.75 2H14.125C13.5727 2 13.125 2.44772 13.125 3C13.125 3.55228 13.5727 4 14.125 4H14.75C15.1386 4 15.5172 4.15851 15.8008 4.45023C16.0853 4.74291 16.25 5.14571 16.25 5.57143V8.14286C16.25 8.94016 16.4745 10.1181 17.1808 11.127C17.4073 11.4507 17.68 11.7512 18.0018 12.0125C16.9937 12.7852 16.25 14.0356 16.25 15.8571V18.4286C16.25 18.8543 16.0853 19.2571 15.8008 19.5498C15.5172 19.8415 15.1386 20 14.75 20H14.125C13.5727 20 13.125 20.4477 13.125 21C13.125 21.5523 13.5727 22 14.125 22H14.75C15.6875 22 16.5807 21.6167 17.2348 20.9439C17.8879 20.2721 18.25 19.3668 18.25 18.4286V15.8571C18.25 14.6285 18.727 13.9634 19.2514 13.5751C19.8252 13.1501 20.5408 13 21 13C21.5523 13 22 12.5523 22 12C22 11.4477 21.5523 11 21 11C19.838 11 19.2014 10.526 18.8192 9.98011C18.4005 9.38188 18.25 8.63127 18.25 8.14286V5.57143C18.25 4.63317 17.8879 3.72787 17.2348 3.05608ZM10.875 3C10.875 2.44772 10.4273 2 9.875 2H9.25C8.31251 2 7.4193 2.38332 6.76524 3.05608C6.1121 3.72787 5.75 4.63317 5.75 5.57143V8.14286C5.75 8.63127 5.59953 9.38188 5.18077 9.98011C4.79862 10.526 4.16205 11 3 11C2.44772 11 2 11.4477 2 12C2 12.5523 2.44772 13 3 13C3.45917 13 4.17483 13.1501 4.74861 13.5751C5.27305 13.9634 5.75 14.6285 5.75 15.8571V18.4286C5.75 19.3668 6.1121 20.2721 6.76524 20.9439C7.4193 21.6167 8.31251 22 9.25 22H9.875C10.4273 22 10.875 21.5523 10.875 21C10.875 20.4477 10.4273 20 9.875 20H9.25C8.86141 20 8.48284 19.8415 8.19923 19.5498C7.91468 19.2571 7.75 18.8543 7.75 18.4286V15.8571C7.75 14.0356 7.00627 12.7852 5.99822 12.0125C6.31997 11.7512 6.59265 11.4507 6.81923 11.127C7.52547 10.1181 7.75 8.94016 7.75 8.14286V5.57143C7.75 5.14571 7.91468 4.74291 8.19923 4.45023C8.48284 4.15851 8.86141 4 9.25 4H9.875C10.4273 4 10.875 3.55228 10.875 3Z" fill="black"/>
</g>
</svg>
