<svg width="24" height="24" viewBox="0 0 24 24" fill="none" xmlns="http://www.w3.org/2000/svg">
<g id="database">
<path id="Vector (Stroke)" fill-rule="evenodd" clip-rule="evenodd" d="M5.27649 7.55882C5.02154 7.79993 5 7.94935 5 8C5 8.05065 5.02154 8.20007 5.27649 8.44118C5.53356 8.68429 5.9592 8.94929 6.56809 9.19284C7.78032 9.67774 9.52358 10 11.5 10C13.4764 10 15.2197 9.67774 16.4319 9.19284C17.0408 8.94929 17.4664 8.68429 17.7235 8.44118C17.9785 8.20007 18 8.05065 18 8C18 7.94935 17.9785 7.79993 17.7235 7.55882C17.4664 7.31571 17.0408 7.05071 16.4319 6.80716C15.2197 6.32226 13.4764 6 11.5 6C9.52358 6 7.78032 6.32226 6.56809 6.80716C5.9592 7.05071 5.53356 7.31571 5.27649 7.55882ZM5.82531 4.9502C7.32754 4.34931 9.33428 4 11.5 4C13.6657 4 15.6725 4.34931 17.1747 4.9502C17.923 5.24954 18.5957 5.63099 19.0977 6.10571C19.6018 6.58243 20 7.22222 20 8C20 8.77778 19.6018 9.41757 19.0977 9.89429C18.5957 10.369 17.923 10.7505 17.1747 11.0498C15.6725 11.6507 13.6657 12 11.5 12C9.33428 12 7.32754 11.6507 5.82531 11.0498C5.07697 10.7505 4.40426 10.369 3.90228 9.89429C3.39819 9.41757 3 8.77778 3 8C3 7.22222 3.39819 6.58243 3.90228 6.10571C4.40426 5.63098 5.07697 5.24954 5.82531 4.9502Z" fill="black"/>
<path id="Vector (Stroke)_2" fill-rule="evenodd" clip-rule="evenodd" d="M6.61959 13.5687C7.81694 14.1274 9.54136 14.5 11.5 14.5C13.4586 14.5 15.1831 14.1274 16.3804 13.5687C17.659 12.972 18 12.3472 18 12H20C20 13.5858 18.6621 14.7109 17.2262 15.381C15.7091 16.089 13.6835 16.5 11.5 16.5C9.3165 16.5 7.29093 16.089 5.77381 15.381C4.3379 14.7109 3 13.5858 3 12H5C5 12.3472 5.34103 12.972 6.61959 13.5687Z" fill="black"/>
<path id="Vector (Stroke)_3" fill-rule="evenodd" clip-rule="evenodd" d="M3 16.5714V8H5V16.5714C5 16.8879 5.32491 17.4977 6.61246 18.0863C7.81174 18.6346 9.53878 19 11.5 19C13.4612 19 15.1883 18.6346 16.3875 18.0863C17.6751 17.4977 18 16.8879 18 16.5714V8H20V16.5714C20 18.1484 18.646 19.2529 17.2191 19.9053C15.7039 20.5979 13.6809 21 11.5 21C9.31908 21 7.29612 20.5979 5.78094 19.9053C4.35402 19.2529 3 18.1484 3 16.5714Z" fill="black"/>
</g>
</svg>
