<svg width="24" height="24" viewBox="0 0 24 24" fill="none" xmlns="http://www.w3.org/2000/svg">
<g id="division">
<path id="Union" fill-rule="evenodd" clip-rule="evenodd" d="M5.63603 16.9498C5.24551 17.3403 5.24551 17.9734 5.63603 18.364C6.02656 18.7545 6.65972 18.7545 7.05025 18.364L18.364 7.05026C18.7545 6.65974 18.7545 6.02657 18.364 5.63605C17.9734 5.24552 17.3403 5.24552 16.9497 5.63605L5.63603 16.9498ZM17.6569 17.6569C18.4379 16.8758 18.4379 15.6095 17.6569 14.8284C16.8758 14.0474 15.6095 14.0474 14.8284 14.8284C14.0474 15.6095 14.0474 16.8758 14.8284 17.6569C15.6095 18.4379 16.8758 18.4379 17.6569 17.6569ZM9.17157 6.34316C9.95262 7.12421 9.95262 8.39054 9.17157 9.17159C8.39053 9.95263 7.1242 9.95263 6.34315 9.17159C5.5621 8.39054 5.5621 7.12421 6.34315 6.34316C7.1242 5.56211 8.39053 5.56211 9.17157 6.34316Z" fill="black"/>
</g>
</svg>
