<svg width="24" height="24" viewBox="0 0 24 24" fill="none" xmlns="http://www.w3.org/2000/svg">
<g id="eye-disabled">
<path id="Subtract" fill-rule="evenodd" clip-rule="evenodd" d="M16.7679 3.20579C17.0441 2.7275 17.6557 2.56363 18.134 2.83977C18.6123 3.11591 18.7761 3.7275 18.5 4.20579L17.2524 6.36664L15.8453 8.8039L14.7252 10.744L12.2751 14.9876L11.1544 16.9288L10.0608 18.8229L9.5 19.7943C9.22386 20.2725 8.61226 20.4364 8.13397 20.1603C7.65568 19.8841 7.4918 19.2725 7.76795 18.7943L8.07843 18.2565C4.32076 16.7874 2 13.5234 2 12C2 10 6 5.00002 12 5.00002C13.2258 5.00002 14.3682 5.20871 15.41 5.55789L16.7679 3.20579ZM12.2699 18.9966C18.1197 18.85 22 13.9699 22 12C22 10.9388 20.8739 9.03304 18.9204 7.47769L16.8965 10.9831C16.9644 11.3115 17 11.6516 17 12C17 14.214 15.561 16.0919 13.5673 16.7494L12.2699 18.9966ZM12 7.00002C12.8153 7.00002 13.5849 7.19513 14.2649 7.54121L13.2623 9.27772C12.8786 9.0995 12.4509 9.00002 12 9.00002C10.3431 9.00002 9 10.3432 9 12C9 13.0143 9.50332 13.911 10.2738 14.454L9.27125 16.1904C7.9038 15.2982 7 13.7546 7 12C7 9.23859 9.23858 7.00002 12 7.00002Z" fill="black"/>
</g>
</svg>
