<svg width="24" height="24" viewBox="0 0 24 24" fill="none" xmlns="http://www.w3.org/2000/svg">
<g id="eye">
<path id="Subtract" fill-rule="evenodd" clip-rule="evenodd" d="M22 12C22 14 18 19 12 19C6 19 2 14 2 12C2 10 6 5 12 5C18 5 22 10 22 12ZM17 12C17 14.7614 14.7614 17 12 17C9.23858 17 7 14.7614 7 12C7 9.23858 9.23858 7 12 7C14.7614 7 17 9.23858 17 12ZM12 15C13.6569 15 15 13.6569 15 12C15 11.5369 14.895 11.0982 14.7076 10.7066C14.5266 10.8879 14.2764 11 14 11C13.4477 11 13 10.5523 13 10C13 9.72359 13.1121 9.47338 13.2934 9.29237C12.9018 9.10495 12.4631 9 12 9C10.3431 9 9 10.3431 9 12C9 13.6569 10.3431 15 12 15Z" fill="black"/>
</g>
</svg>
