<svg width="24" height="24" viewBox="0 0 24 24" fill="none" xmlns="http://www.w3.org/2000/svg">
<g id="flash">
<path id="flash_2" d="M5.79295 2.14415C5.86407 1.95195 6.13593 1.95195 6.20705 2.14415L7.15733 4.71224C7.17969 4.77267 7.22733 4.82031 7.28776 4.84267L9.85584 5.79295C10.0481 5.86407 10.0481 6.13593 9.85585 6.20705L7.28776 7.15733C7.22733 7.17969 7.17969 7.22733 7.15733 7.28776L6.20705 9.85584C6.13593 10.0481 5.86407 10.0481 5.79295 9.85585L4.84267 7.28776C4.82031 7.22733 4.77267 7.17969 4.71224 7.15733L2.14415 6.20705C1.95195 6.13593 1.95195 5.86407 2.14415 5.79295L4.71224 4.84267C4.77267 4.82031 4.82031 4.77267 4.84267 4.71224L5.79295 2.14415Z" fill="black"/>
<path id="flash_3" d="M11.793 8.14415C11.8641 7.95195 12.1359 7.95195 12.207 8.14415L13.1573 10.7122C13.1797 10.7727 13.2273 10.8203 13.2878 10.8427L15.8558 11.793C16.0481 11.8641 16.0481 12.1359 15.8558 12.207L13.2878 13.1573C13.2273 13.1797 13.1797 13.2273 13.1573 13.2878L12.207 15.8558C12.1359 16.0481 11.8641 16.0481 11.793 15.8558L10.8427 13.2878C10.8203 13.2273 10.7727 13.1797 10.7122 13.1573L8.14415 12.207C7.95195 12.1359 7.95195 11.8641 8.14415 11.793L10.7122 10.8427C10.7727 10.8203 10.8203 10.7727 10.8427 10.7122L11.793 8.14415Z" fill="black"/>
<path id="flash_4" d="M17.793 14.1442C17.8641 13.9519 18.1359 13.9519 18.207 14.1442L19.1573 16.7122C19.1797 16.7727 19.2273 16.8203 19.2878 16.8427L21.8558 17.793C22.0481 17.8641 22.0481 18.1359 21.8558 18.207L19.2878 19.1573C19.2273 19.1797 19.1797 19.2273 19.1573 19.2878L18.207 21.8558C18.1359 22.0481 17.8641 22.0481 17.793 21.8558L16.8427 19.2878C16.8203 19.2273 16.7727 19.1797 16.7122 19.1573L14.1442 18.207C13.9519 18.1359 13.9519 17.8641 14.1442 17.793L16.7122 16.8427C16.7727 16.8203 16.8203 16.7727 16.8427 16.7122L17.793 14.1442Z" fill="black"/>
<path id="flash_5" d="M5.79295 14.1442C5.86407 13.9519 6.13593 13.9519 6.20705 14.1442L7.15733 16.7122C7.17969 16.7727 7.22733 16.8203 7.28776 16.8427L9.85584 17.793C10.0481 17.8641 10.0481 18.1359 9.85585 18.207L7.28776 19.1573C7.22733 19.1797 7.17969 19.2273 7.15733 19.2878L6.20705 21.8558C6.13593 22.0481 5.86407 22.0481 5.79295 21.8558L4.84267 19.2878C4.82031 19.2273 4.77267 19.1797 4.71224 19.1573L2.14415 18.207C1.95195 18.1359 1.95195 17.8641 2.14415 17.793L4.71224 16.8427C4.77267 16.8203 4.82031 16.7727 4.84267 16.7122L5.79295 14.1442Z" fill="black"/>
<path id="flash_6" d="M17.793 2.14415C17.8641 1.95195 18.1359 1.95195 18.207 2.14415L19.1573 4.71224C19.1797 4.77267 19.2273 4.82031 19.2878 4.84267L21.8558 5.79295C22.0481 5.86407 22.0481 6.13593 21.8558 6.20705L19.2878 7.15733C19.2273 7.17969 19.1797 7.22733 19.1573 7.28776L18.207 9.85584C18.1359 10.0481 17.8641 10.0481 17.793 9.85585L16.8427 7.28776C16.8203 7.22733 16.7727 7.17969 16.7122 7.15733L14.1442 6.20705C13.9519 6.13593 13.9519 5.86407 14.1442 5.79295L16.7122 4.84267C16.7727 4.82031 16.8203 4.77267 16.8427 4.71224L17.793 2.14415Z" fill="black"/>
</g>
</svg>
