<svg width="24" height="24" viewBox="0 0 24 24" fill="none" xmlns="http://www.w3.org/2000/svg">
<g id="gear">
<path id="gear_2" fill-rule="evenodd" clip-rule="evenodd" d="M11 2C10.7048 2.59035 10.4097 3.5292 10.2174 4.19934C9.32785 4.40177 8.49471 4.75244 7.74531 5.22398C7.13544 4.88606 6.2624 4.43062 5.63599 4.22182L4.22177 5.63604C4.43058 6.26245 4.88602 7.1355 5.22394 7.74537C4.75242 8.49476 4.40177 9.32787 4.19934 10.2174C3.5292 10.4097 2.59035 10.7048 2 11V13C2.59035 13.2952 3.5292 13.5903 4.19934 13.7826C4.40176 14.6721 4.7524 15.5052 5.22391 16.2546C4.88598 16.8645 4.43053 17.7375 4.22171 18.364L5.63593 19.7782C6.26235 19.5694 7.1354 19.1139 7.74528 18.776C8.49469 19.2476 9.32783 19.5982 10.2174 19.8007C10.4097 20.4708 10.7048 21.4097 11 22H13C13.2952 21.4097 13.5903 20.4708 13.7826 19.8007C14.6722 19.5982 15.5053 19.2476 16.2547 18.776C16.8646 19.1139 17.7376 19.5694 18.364 19.7782L19.7782 18.364C19.5694 17.7376 19.114 16.8645 18.7761 16.2546C19.2476 15.5052 19.5982 14.6721 19.8007 13.7826C20.4708 13.5903 21.4097 13.2952 22 13V11C21.4097 10.7048 20.4708 10.4097 19.8007 10.2174C19.5982 9.32789 19.2476 8.4948 18.7761 7.74542C19.114 7.13555 19.5695 6.26247 19.7783 5.63604L18.3641 4.22183C17.7377 4.43063 16.8646 4.88608 16.2547 5.224C15.5053 4.75245 14.6722 4.40177 13.7826 4.19934C13.5903 3.5292 13.2952 2.59035 13 2H11ZM12 17C14.7614 17 17 14.7614 17 12C17 9.23858 14.7614 7 12 7C9.23858 7 7 9.23858 7 12C7 14.7614 9.23858 17 12 17ZM12 15C13.6569 15 15 13.6569 15 12C15 10.3431 13.6569 9 12 9C10.3431 9 9 10.3431 9 12C9 13.6569 10.3431 15 12 15Z" fill="black"/>
</g>
</svg>
