<svg width="24" height="24" viewBox="0 0 24 24" fill="none" xmlns="http://www.w3.org/2000/svg">
<g id="globe">
<path id="globe_2" fill-rule="evenodd" clip-rule="evenodd" d="M14.6175 19.562C16.9302 18.7616 18.7616 16.9302 19.562 14.6175C18.5253 15.0963 17.2091 15.4756 15.7149 15.7149C15.4756 17.2091 15.0963 18.5253 14.6175 19.562ZM9.38254 19.562C7.06982 18.7616 5.23839 16.9302 4.43801 14.6175C5.47473 15.0963 6.79092 15.4756 8.28511 15.7149C8.52439 17.2091 8.90373 18.5253 9.38254 19.562ZM10.3562 15.9462C10.5312 16.8568 10.7618 17.6615 11.0285 18.3283C11.3347 19.0937 11.6492 19.5788 11.8961 19.8399C11.9365 19.8826 11.9711 19.9155 12 19.9407C12.0289 19.9155 12.0635 19.8826 12.1039 19.8399C12.3508 19.5788 12.6653 19.0937 12.9715 18.3283C13.2382 17.6615 13.4688 16.8568 13.6438 15.9462C13.109 15.9816 12.5599 16 12 16C11.4401 16 10.891 15.9816 10.3562 15.9462ZM13.9198 13.9198C13.3066 13.9719 12.6645 14 12 14C11.3355 14 10.6934 13.9719 10.0802 13.9198C10.0281 13.3066 10 12.6645 10 12C10 11.3355 10.0281 10.6934 10.0802 10.0802C10.6934 10.0281 11.3355 10 12 10C12.6645 10 13.3066 10.0281 13.9198 10.0802C13.9719 10.6934 14 11.3355 14 12C14 12.6645 13.9719 13.3066 13.9198 13.9198ZM15.9462 13.6438C16.8568 13.4688 17.6615 13.2382 18.3283 12.9715C19.0937 12.6653 19.5788 12.3508 19.8399 12.1039C19.8826 12.0635 19.9155 12.0289 19.9407 12C19.9155 11.9711 19.8826 11.9365 19.8399 11.8961C19.5788 11.6492 19.0937 11.3347 18.3283 11.0285C17.6615 10.7618 16.8568 10.5312 15.9462 10.3562C15.9816 10.891 16 11.4401 16 12C16 12.5599 15.9816 13.109 15.9462 13.6438ZM15.7149 8.28511C17.2091 8.52439 18.5253 8.90373 19.562 9.38254C18.7616 7.06982 16.9302 5.23839 14.6175 4.438C15.0963 5.47473 15.4756 6.79092 15.7149 8.28511ZM12 2C6.47715 2 2 6.47715 2 12C2 17.5228 6.47715 22 12 22C17.5228 22 22 17.5228 22 12C22 6.47715 17.5228 2 12 2ZM9.38254 4.43801C8.90373 5.47473 8.52439 6.79092 8.28511 8.28511C6.79092 8.52439 5.47473 8.90373 4.43801 9.38254C5.23839 7.06982 7.06982 5.23839 9.38254 4.43801ZM10.3562 8.05378C10.891 8.0184 11.4401 8 12 8C12.5599 8 13.109 8.0184 13.6437 8.05378C13.4688 7.14322 13.2382 6.33847 12.9715 5.67171C12.6653 4.90634 12.3508 4.42118 12.1039 4.16006C12.0635 4.11741 12.0289 4.08451 12 4.05929C11.9711 4.08451 11.9365 4.11741 11.8961 4.16006C11.6492 4.42118 11.3347 4.90634 11.0285 5.67171C10.7618 6.33847 10.5312 7.14322 10.3562 8.05378ZM8.05378 10.3562C7.14322 10.5312 6.33847 10.7618 5.67171 11.0285C4.90634 11.3347 4.42118 11.6492 4.16007 11.8961C4.11741 11.9365 4.08451 11.9711 4.05929 12C4.08451 12.0289 4.11741 12.0635 4.16007 12.1039C4.42118 12.3508 4.90634 12.6653 5.67171 12.9715C6.33847 13.2382 7.14322 13.4688 8.05378 13.6438C8.0184 13.109 8 12.5599 8 12C8 11.4401 8.0184 10.891 8.05378 10.3562Z" fill="black"/>
</g>
</svg>
