<svg width="24" height="24" viewBox="0 0 24 24" fill="none" xmlns="http://www.w3.org/2000/svg">
<g id="guillemet-right">
<path id="Union" fill-rule="evenodd" clip-rule="evenodd" d="M7.41421 7C7.02369 6.60948 6.39053 6.60948 6 7C5.60948 7.39053 5.60948 8.02369 6 8.41421L9.58579 12L6 15.5858C5.60948 15.9763 5.60948 16.6095 6 17C6.39053 17.3905 7.02369 17.3905 7.41421 17L12.4142 12L7.41421 7ZM14.4142 7C14.0237 6.60948 13.3905 6.60948 13 7C12.6095 7.39053 12.6095 8.02369 13 8.41421L16.5858 12L13 15.5858C12.6095 15.9763 12.6095 16.6095 13 17C13.3905 17.3905 14.0237 17.3905 14.4142 17L19.4142 12L14.4142 7Z" fill="#3014FF"/>
</g>
</svg>
