<svg width="24" height="24" viewBox="0 0 24 24" fill="none" xmlns="http://www.w3.org/2000/svg">
<g id="guillemet-left">
<path id="Union" fill-rule="evenodd" clip-rule="evenodd" d="M9.58579 7C9.97631 6.60948 10.6095 6.60948 11 7C11.3905 7.39053 11.3905 8.02369 11 8.41421L7.41421 12L11 15.5858C11.3905 15.9763 11.3905 16.6095 11 17C10.6095 17.3905 9.97631 17.3905 9.58579 17L4.58578 12L9.58579 7ZM16.5858 7C16.9763 6.60948 17.6095 6.60948 18 7C18.3905 7.39053 18.3905 8.02369 18 8.41421L14.4142 12L18 15.5858C18.3905 15.9763 18.3905 16.6095 18 17C17.6095 17.3905 16.9763 17.3905 16.5858 17L11.5858 12L16.5858 7Z" fill="#3014FF"/>
</g>
</svg>
