<svg width="24" height="24" viewBox="0 0 24 24" fill="none" xmlns="http://www.w3.org/2000/svg">
<g id="guillemet-top">
<path id="Union" fill-rule="evenodd" clip-rule="evenodd" d="M7 9.58579C6.60948 9.97631 6.60948 10.6095 7 11C7.39052 11.3905 8.02369 11.3905 8.41421 11L12 7.41421L15.5858 11C15.9763 11.3905 16.6095 11.3905 17 11C17.3905 10.6095 17.3905 9.97631 17 9.58579L12 4.58578L7 9.58579ZM7 16.5858C6.60948 16.9763 6.60948 17.6095 7 18C7.39052 18.3905 8.02369 18.3905 8.41421 18L12 14.4142L15.5858 18C15.9763 18.3905 16.6095 18.3905 17 18C17.3905 17.6095 17.3905 16.9763 17 16.5858L12 11.5858L7 16.5858Z" fill="#3014FF"/>
</g>
</svg>
