<svg width="24" height="24" viewBox="0 0 24 24" fill="none" xmlns="http://www.w3.org/2000/svg">
<g id="guillemet-bottom">
<path id="Union" fill-rule="evenodd" clip-rule="evenodd" d="M17 7.41421C17.3905 7.02369 17.3905 6.39053 17 6C16.6095 5.60948 15.9763 5.60948 15.5858 6L12 9.58579L8.41421 6C8.02369 5.60948 7.39053 5.60948 7 6C6.60948 6.39053 6.60948 7.02369 7 7.41422L12 12.4142L17 7.41421ZM17 14.4142C17.3905 14.0237 17.3905 13.3905 17 13C16.6095 12.6095 15.9763 12.6095 15.5858 13L12 16.5858L8.41421 13C8.02369 12.6095 7.39053 12.6095 7 13C6.60948 13.3905 6.60948 14.0237 7 14.4142L12 19.4142L17 14.4142Z" fill="#3014FF"/>
</g>
</svg>
