<svg width="24" height="24" viewBox="0 0 24 24" fill="none" xmlns="http://www.w3.org/2000/svg">
<g id="key">
<path id="Union" fill-rule="evenodd" clip-rule="evenodd" d="M11.1431 14.8C10.2441 16.1275 8.72396 17 7 17C4.23858 17 2 14.7614 2 12C2 9.23858 4.23858 7 7 7C9.05032 7 10.8124 8.2341 11.584 10H21.3333C21.4343 10 21.5253 10.0607 21.5641 10.1538L21.9808 11.1538C21.9935 11.1843 22 11.217 22 11.25V12.3095C22 12.368 21.9795 12.4246 21.9421 12.4695L20.075 14.71C20.0275 14.767 19.9571 14.8 19.8829 14.8H19.1171C19.0429 14.8 18.9725 14.767 18.925 14.71L18.1921 13.8305C18.0921 13.7105 17.9079 13.7105 17.8079 13.8305L17.075 14.71C17.0275 14.767 16.9571 14.8 16.8829 14.8H16.1171C16.0429 14.8 15.9725 14.767 15.925 14.71L15.1921 13.8305C15.0921 13.7105 14.9079 13.7105 14.8079 13.8305L14.075 14.71C14.0275 14.767 13.9571 14.8 13.8829 14.8H11.1431ZM10 12C10 13.6569 8.65685 15 7 15C5.34315 15 4 13.6569 4 12C4 10.3431 5.34315 9 7 9C8.65685 9 10 10.3431 10 12Z" fill="black"/>
</g>
</svg>
