<svg width="24" height="24" viewBox="0 0 24 24" fill="none" xmlns="http://www.w3.org/2000/svg">
<g id="link">
<path id="link_2" fill-rule="evenodd" clip-rule="evenodd" d="M4 12C4 9.79086 5.79086 8 8 8H10C10.5523 8 11 7.55228 11 7C11 6.44772 10.5523 6 10 6H8C4.68629 6 2 8.68629 2 12C2 15.3137 4.68629 18 8 18H10C10.5523 18 11 17.5523 11 17C11 16.4477 10.5523 16 10 16H8C5.79086 16 4 14.2091 4 12ZM14 6C13.4477 6 13 6.44772 13 7C13 7.55228 13.4477 8 14 8H16C18.2091 8 20 9.79086 20 12C20 14.2091 18.2091 16 16 16H14C13.4477 16 13 16.4477 13 17C13 17.5523 13.4477 18 14 18H16C19.3137 18 22 15.3137 22 12C22 8.68629 19.3137 6 16 6H14ZM8 11C7.44772 11 7 11.4477 7 12C7 12.5523 7.44772 13 8 13H16C16.5523 13 17 12.5523 17 12C17 11.4477 16.5523 11 16 11H8Z" fill="black"/>
</g>
</svg>
