<svg width="24" height="24" viewBox="0 0 24 24" fill="none" xmlns="http://www.w3.org/2000/svg">
<g id="mail">
<path id="mail_2" fill-rule="evenodd" clip-rule="evenodd" d="M9.87873 12.4645C11.0503 13.636 12.9498 13.636 14.1214 12.4645L21.5858 5L2.41427 5L9.87873 12.4645ZM2 7.41416V14.0317L4.76832 11.7247C5.22005 11.3483 5.25104 10.6652 4.83524 10.2494L2 7.41416ZM2 16.6351V18C2 18.5523 2.44772 19 3 19H21C21.5523 19 22 18.5523 22 18V16.635L17.672 13.0284C17.2747 12.6973 16.6905 12.7238 16.3248 13.0895L15.5356 13.8787C13.583 15.8313 10.4171 15.8313 8.46452 13.8787L7.67533 13.0895C7.30961 12.7238 6.72536 12.6973 6.32804 13.0284L2 16.6351ZM22 14.0316V7.41427L19.1648 10.2494C18.749 10.6652 18.78 11.3483 19.2318 11.7248L22 14.0316Z" fill="black"/>
</g>
</svg>
