<svg width="24" height="24" viewBox="0 0 24 24" fill="none" xmlns="http://www.w3.org/2000/svg">
<g id="money">
<path id="money_2" fill-rule="evenodd" clip-rule="evenodd" d="M11 3.5C11 2.67157 11.6716 2 12.5 2C13.3284 2 14 2.67157 14 3.5V4.5C14 4.55951 13.9965 4.61821 13.9898 4.67591C15.1434 4.89786 15.9433 5.29463 16.6707 5.65839C17.4117 6.0289 17.712 6.92992 17.3415 7.67088C16.971 8.41183 16.0699 8.71213 15.329 8.34161C14.2515 7.80278 13.2174 7.5 11.9999 7.5C11 7.5 9.49996 7.5 9.49996 9C9.49996 10.5 11.0311 10.5 11.9999 10.5C13.6 10.5 15.0299 10.753 16.062 11.5787C17.1829 12.4754 17.4999 13.7605 17.4999 15C17.4999 16.5819 16.6777 17.7676 15.582 18.4981C15.0909 18.8254 14.5683 19.0656 14 19.2286C14 19.5 14 20.0843 14 20.5C14 21.3284 13.3284 22 12.5 22C11.6716 22 11 21.3284 11 20.5C11 20.1535 11.0005 19.4593 11.0005 19.4593C9.28303 19.3135 8.24825 18.8012 7.32914 18.3416C6.58817 17.9712 6.28784 17.0701 6.65832 16.3292C7.02881 15.5882 7.92982 15.2879 8.67078 15.6584C9.7483 16.1972 10.9998 16.5 11.9999 16.5C13 16.5 14.4999 16.5 14.4999 15C14.4999 13.5 13.2545 13.5 11.9999 13.5C10.3998 13.5 8.96994 13.247 7.93787 12.4213C6.81695 11.5245 6.49996 10.2395 6.49996 9C6.49996 7.41815 7.32218 6.23241 8.41789 5.50193C9.18637 4.9896 10.0922 4.6909 11.0015 4.56728C11.0005 4.54497 11 4.52254 11 4.5V3.5Z" fill="black"/>
</g>
</svg>
