<svg width="24" height="24" viewBox="0 0 24 24" fill="none" xmlns="http://www.w3.org/2000/svg">
<g id="nazar">
<path id="Union" fill-rule="evenodd" clip-rule="evenodd" d="M21.2388 8.17317C21.7413 9.38642 22 10.6868 22 12C22 13.3132 21.7413 14.6136 21.2388 15.8268C20.7362 17.0401 19.9997 18.1425 19.0711 19.0711C18.1425 19.9997 17.0401 20.7362 15.8268 21.2388C14.6136 21.7413 13.3132 22 12 22C10.6868 22 9.38642 21.7413 8.17317 21.2388C6.95991 20.7362 5.85752 19.9997 4.92893 19.0711C4.00035 18.1425 3.26375 17.0401 2.76121 15.8268C2.25866 14.6136 2 13.3132 2 12C2 10.6868 2.25866 9.38642 2.7612 8.17317C3.26375 6.95991 4.00035 5.85752 4.92893 4.92893C5.85752 4.00035 6.95991 3.26375 8.17317 2.7612C9.38642 2.25866 10.6868 2 12 2C13.3132 2 14.6136 2.25866 15.8268 2.7612C17.0401 3.26375 18.1425 4.00035 19.0711 4.92893C19.9997 5.85752 20.7362 6.95991 21.2388 8.17317ZM16.6194 10.0866C16.8707 10.6932 17 11.3434 17 12C17 12.6566 16.8707 13.3068 16.6194 13.9134C16.3681 14.52 15.9998 15.0712 15.5355 15.5355C15.0712 15.9998 14.52 16.3681 13.9134 16.6194C13.3068 16.8707 12.6566 17 12 17C11.3434 17 10.6932 16.8707 10.0866 16.6194C9.47995 16.3681 8.92876 15.9998 8.46447 15.5355C8.00017 15.0712 7.63188 14.52 7.3806 13.9134C7.12933 13.3068 7 12.6566 7 12C7 11.3434 7.12933 10.6932 7.3806 10.0866C7.63188 9.47996 8.00017 8.92876 8.46447 8.46447C8.92876 8.00017 9.47995 7.63188 10.0866 7.3806C10.6932 7.12933 11.3434 7 12 7C12.6566 7 13.3068 7.12933 13.9134 7.3806C14.52 7.63188 15.0712 8.00017 15.5355 8.46447C15.9998 8.92876 16.3681 9.47995 16.6194 10.0866ZM12 15C13.6569 15 15 13.6569 15 12C15 10.3431 13.6569 9 12 9C10.3431 9 9 10.3431 9 12C9 13.6569 10.3431 15 12 15Z" fill="black"/>
</g>
</svg>
