<svg width="24" height="24" viewBox="0 0 24 24" fill="none" xmlns="http://www.w3.org/2000/svg">
<g id="paper">
<path id="paste" fill-rule="evenodd" clip-rule="evenodd" d="M5 2H19C20.1046 2 21 2.89543 21 4V20C21 21.1046 20.1046 22 19 22H5C3.89543 22 3 21.1046 3 20V4C3 2.89543 3.89543 2 5 2ZM5 19V5C5 4.44772 5.44772 4 6 4H18C18.5523 4 19 4.44772 19 5V19C19 19.5523 18.5523 20 18 20H6C5.44772 20 5 19.5523 5 19Z" fill="black"/>
<path id="Rectangle 745" d="M8 17C7.44771 17 7 16.5523 7 16C7 15.4477 7.44772 15 8 15L13 15C13.5523 15 14 15.4477 14 16C14 16.5523 13.5523 17 13 17L8 17Z" fill="black"/>
<path id="Rectangle 746" d="M8 9C7.44772 9 7 8.55228 7 8C7 7.44771 7.44772 7 8 7L13 7C13.5523 7 14 7.44772 14 8C14 8.55229 13.5523 9 13 9L8 9Z" fill="black"/>
<path id="Rectangle 749" d="M8 13C7.44771 13 7 12.5523 7 12C7 11.4477 7.44772 11 8 11L15 11C15.5523 11 16 11.4477 16 12C16 12.5523 15.5523 13 15 13L8 13Z" fill="black"/>
</g>
</svg>
