<svg width="24" height="24" viewBox="0 0 24 24" fill="none" xmlns="http://www.w3.org/2000/svg">
<g id="paste">
<path id="paste_2" fill-rule="evenodd" clip-rule="evenodd" d="M10 4V3.5C10 3.22386 10.2239 3 10.5 3H13.5C13.7761 3 14 3.22386 14 3.5V4H18C19.1046 4 20 4.89543 20 6V20C20 21.1046 19.1046 22 18 22H6C4.89543 22 4 21.1046 4 20V6C4 4.89543 4.89543 4 6 4H10ZM6 19V7C6 6.44772 6.44772 6 7 6H17C17.5523 6 18 6.44772 18 7V19C18 19.5523 17.5523 20 17 20H7C6.44772 20 6 19.5523 6 19ZM9 6C9 6.5 9 6 9 6.5C9 6.77614 9.22386 7 9.5 7H14.5C14.7761 7 15 6.77614 15 6.5C15 6 15 6.5 15 6H9Z" fill="black"/>
</g>
</svg>
