<svg width="24" height="24" viewBox="0 0 24 24" fill="none" xmlns="http://www.w3.org/2000/svg">
<g id="person">
<path id="person_2" fill-rule="evenodd" clip-rule="evenodd" d="M15.9452 8.5C15.9452 6.01472 14.3904 4 11.9452 4C9.5 4 7.94519 6.01472 7.94519 8.5C7.94519 10.2018 8.78486 11.6829 10.0235 12.4477C10.1984 12.5556 10.287 12.7753 10.2287 12.9724C10.1854 13.1185 10.0698 13.2195 9.9223 13.258C6.79585 14.0726 4.41378 15.7309 4.0068 19.0023C3.93861 19.5503 4.3929 20 4.94519 20H11.9452H18.9452C19.4975 20 19.9518 19.5503 19.8836 19.0023C19.4766 15.7309 17.0945 14.0726 13.9681 13.258C13.8206 13.2195 13.705 13.1185 13.6617 12.9724C13.6034 12.7753 13.6919 12.5556 13.8668 12.4477C15.1055 11.6829 15.9452 10.2018 15.9452 8.5Z" fill="black"/>
</g>
</svg>
