<svg width="24" height="24" viewBox="0 0 24 24" fill="none" xmlns="http://www.w3.org/2000/svg">
<g id="plus">
<path id="plus_2" fill-rule="evenodd" clip-rule="evenodd" d="M12 3C12.5523 3 13 3.44772 13 4V9.9985C13 9.999 13 9.9995 13 10C13 10.5523 13.4477 11 14 11C14.0007 11 14.0014 11 14.002 11H20C20.5523 11 21 11.4477 21 12C21 12.5523 20.5523 13 20 13H14.0021C14.0014 13 14.0007 13 14 13C13.4477 13 13 13.4477 13 14C13 14.0004 13 14.0009 13 14.0013V20C13 20.5523 12.5523 21 12 21C11.4477 21 11 20.5523 11 20V14.0015C11 14.001 11 14.0005 11 14C11 13.4488 10.554 13.0017 10.0031 13H4C3.44772 13 3 12.5523 3 12C3 11.4477 3.44772 11 4 11H9.99761C9.9984 11 9.9992 11 10 11C10.5514 11 10.9985 10.5538 11 10.0028V4C11 3.44772 11.4477 3 12 3Z" fill="black"/>
</g>
</svg>
