<svg width="24" height="24" viewBox="0 0 24 24" fill="none" xmlns="http://www.w3.org/2000/svg">
<g id="refresh">
<g id="Union">
<path d="M17 14.5L17 18.2454C18.8289 16.7793 20 14.5264 20 12C20 7.9197 16.9453 4.55286 12.998 4.06165C12.45 3.99345 12 3.55229 12 3C12 2.44772 12.449 1.99475 12.9986 2.04924C18.0526 2.55031 22 6.81418 22 12C22 14.9867 20.6906 17.6676 18.6146 19.5H22C22.5523 19.5 23 19.9477 23 20.5C23 21.0523 22.5523 21.5 22 21.5H15L15 14.5C15 13.9477 15.4477 13.5 16 13.5C16.5523 13.5 17 13.9477 17 14.5Z" fill="#3014FF"/>
<path d="M7 5.75463L7 9.5C7 10.0523 7.44771 10.5 8 10.5C8.55228 10.5 9 10.0523 9 9.5L9 2.5L2 2.5C1.44772 2.5 1 2.94771 1 3.5C1 4.05228 1.44772 4.5 2 4.5L5.38544 4.5C5.08193 4.76788 4.79482 5.05389 4.52578 5.35634C3.09384 6.96614 2.17411 9.04166 2.02227 11.3272C2.0075 11.5496 2 11.7739 2 12C2 16.5376 5.02223 20.3693 9.16357 21.592C9.75519 21.7667 10.3696 21.8881 11.0014 21.9508C11.551 22.0053 12 21.5523 12 21C12 20.4477 11.55 20.0066 11.002 19.9384C7.05471 19.4471 4 16.0803 4 12C4 10.2301 4.57473 8.59452 5.54773 7.26958C5.96365 6.70324 6.45233 6.19366 7 5.75463Z" fill="#3014FF"/>
</g>
</g>
</svg>
