<svg width="24" height="24" viewBox="0 0 24 24" fill="none" xmlns="http://www.w3.org/2000/svg">
<g id="robot">
<path id="robot_2" fill-rule="evenodd" clip-rule="evenodd" d="M14 5C14 5.74028 13.5978 6.38663 13 6.73244V8H19C19.5523 8 20 8.44772 20 9V12H20.5C20.7761 12 21 12.2239 21 12.5V15.5C21 15.7761 20.7761 16 20.5 16H20V19C20 19.5523 19.5523 20 19 20H5C4.44772 20 4 19.5523 4 19V16H3.5C3.22386 16 3 15.7761 3 15.5L3 12.5C3 12.2239 3.22386 12 3.5 12H4L4 9C4 8.44771 4.44772 8 5 8H11V6.73244C10.4022 6.38663 10 5.74028 10 5C10 3.89543 10.8954 3 12 3C13.1046 3 14 3.89543 14 5ZM8 14C9.10457 14 10 13.1046 10 12C10 10.8954 9.10457 10 8 10C6.89543 10 6 10.8954 6 12C6 13.1046 6.89543 14 8 14ZM16 14C17.1046 14 18 13.1046 18 12C18 10.8954 17.1046 10 16 10C14.8954 10 14 10.8954 14 12C14 13.1046 14.8954 14 16 14ZM8 16.5C8 16.2239 8.22386 16 8.5 16H15.5C15.7761 16 16 16.2239 16 16.5V17.5C16 17.7761 15.7761 18 15.5 18H8.5C8.22386 18 8 17.7761 8 17.5V16.5Z" fill="black"/>
</g>
</svg>
