<svg width="24" height="24" viewBox="0 0 24 24" fill="none" xmlns="http://www.w3.org/2000/svg">
<g id="rss">
<path id="rss_2" fill-rule="evenodd" clip-rule="evenodd" d="M19.8582 12.2597C20.612 14.0796 21 16.0302 21 18H18C18 16.4241 17.6896 14.8637 17.0866 13.4078C16.4835 11.9519 15.5996 10.629 14.4853 9.51472C13.371 8.40042 12.0481 7.5165 10.5922 6.91345C9.1363 6.31039 7.57586 6 6 6V3C7.96983 3 9.92037 3.38799 11.7403 4.14181C13.5601 4.89563 15.2137 6.00052 16.6066 7.3934C17.9995 8.78628 19.1044 10.4399 19.8582 12.2597ZM16 18C16 16.6868 15.7413 15.3864 15.2388 14.1732C14.7362 12.9599 13.9997 11.8575 13.0711 10.9289C12.1425 10.0003 11.0401 9.26375 9.82683 8.7612C8.61358 8.25866 7.31322 8 6 8V11C6.91925 11 7.8295 11.1811 8.67878 11.5328C9.52806 11.8846 10.2997 12.4002 10.9497 13.0503C11.5998 13.7003 12.1154 14.4719 12.4672 15.3212C12.8189 16.1705 13 17.0807 13 18H16ZM10 17C10 18.6569 8.65685 20 7 20C5.34315 20 4 18.6569 4 17C4 15.3431 5.34315 14 7 14C8.65685 14 10 15.3431 10 17Z" fill="black"/>
</g>
</svg>
