<svg width="24" height="24" viewBox="0 0 24 24" fill="none" xmlns="http://www.w3.org/2000/svg">
<g id="search">
<path id="search_2" fill-rule="evenodd" clip-rule="evenodd" d="M15.0576 10.0847C15.0576 12.8754 12.8091 15.1377 10.0354 15.1377C7.26179 15.1377 5.01329 12.8754 5.01329 10.0847C5.01329 7.29405 7.26179 5.03177 10.0354 5.03177C12.8091 5.03177 15.0576 7.29405 15.0576 10.0847ZM14.624 16.7225C13.323 17.6346 11.7413 18.1694 10.0354 18.1694C5.59759 18.1694 2 14.5498 2 10.0847C2 5.61965 5.59759 2 10.0354 2C14.4733 2 18.0709 5.61965 18.0709 10.0847C18.0709 11.7378 17.5778 13.2749 16.7315 14.5555L21.5587 19.4122C22.1471 20.0042 22.1471 20.964 21.5587 21.556C20.9703 22.148 20.0164 22.148 19.428 21.556L14.624 16.7225Z" fill="black"/>
</g>
</svg>
