<svg width="24" height="24" viewBox="0 0 24 24" fill="none" xmlns="http://www.w3.org/2000/svg">
<g id="speaker">
<path id="Rectangle 745" d="M19 17C19 17.5523 18.5523 18 18 18C17.4477 18 17 17.5523 17 17L17 7C17 6.44771 17.4477 6 18 6C18.5523 6 19 6.44771 19 7L19 17Z" fill="black"/>
<path id="Rectangle 749" d="M7 17C7 17.5523 6.55228 18 6 18C5.44772 18 5 17.5523 5 17L5 7C5 6.44771 5.44772 6 6 6C6.55228 6 7 6.44771 7 7L7 17Z" fill="black"/>
<path id="Rectangle 947" d="M13 3C13 2.44772 13.4477 2 14 2C14.5523 2 15 2.44772 15 3V21C15 21.5523 14.5523 22 14 22C13.4477 22 13 21.5523 13 21V3Z" fill="black"/>
<path id="Rectangle 948" d="M9 3C9 2.44772 9.44772 2 10 2C10.5523 2 11 2.44772 11 3V21C11 21.5523 10.5523 22 10 22C9.44772 22 9 21.5523 9 21V3Z" fill="black"/>
</g>
</svg>
