<svg width="24" height="24" viewBox="0 0 24 24" fill="none" xmlns="http://www.w3.org/2000/svg">
<g id="star">
<path id="star_2" d="M11.5487 2.31976C11.6974 1.89342 12.3026 1.89341 12.4513 2.31976L14.5868 8.44132C14.6524 8.6294 14.8285 8.75692 15.0283 8.76098L21.5311 8.89302C21.984 8.90222 22.171 9.47566 21.81 9.74835L16.6271 13.6637C16.4678 13.784 16.4005 13.9904 16.4584 14.1809L18.3418 20.3841C18.473 20.8161 17.9835 21.1705 17.6116 20.9127L12.2729 17.211C12.1089 17.0973 11.8911 17.0973 11.7271 17.211L6.38836 20.9127C6.01654 21.1705 5.52699 20.8161 5.65816 20.3841L7.5416 14.1809C7.59947 13.9904 7.53218 13.784 7.37294 13.6637L2.18998 9.74835C1.829 9.47566 2.01599 8.90222 2.46889 8.89302L8.97166 8.76098C9.17145 8.75692 9.3476 8.6294 9.41322 8.44132L11.5487 2.31976Z" fill="black"/>
</g>
</svg>
