<svg width="24" height="24" viewBox="0 0 24 24" fill="none" xmlns="http://www.w3.org/2000/svg">
<g id="sun">
<path id="Union" fill-rule="evenodd" clip-rule="evenodd" d="M12 1C12.5523 1 13 1.44772 13 2V4C13 4.55228 12.5523 5 12 5C11.4477 5 11 4.55228 11 4V2C11 1.44772 11.4477 1 12 1ZM12 19C12.5523 19 13 19.4477 13 20V22C13 22.5523 12.5523 23 12 23C11.4477 23 11 22.5523 11 22V20C11 19.4477 11.4477 19 12 19ZM5 12C5 11.4477 4.55228 11 4 11H2C1.44772 11 1 11.4477 1 12C1 12.5523 1.44772 13 2 13H4C4.55228 13 5 12.5523 5 12ZM23 12C23 12.5523 22.5523 13 22 13H20C19.4477 13 19 12.5523 19 12C19 11.4477 19.4477 11 20 11H22C22.5523 11 23 11.4477 23 12ZM6.53553 6.53553C6.92606 6.14501 6.92606 5.51184 6.53553 5.12132L5.12132 3.70711C4.7308 3.31658 4.09763 3.31658 3.70711 3.70711C3.31658 4.09763 3.31658 4.7308 3.70711 5.12132L5.12132 6.53553C5.51184 6.92606 6.14501 6.92606 6.53553 6.53553ZM20.5355 20.5355C20.145 20.9261 19.5118 20.9261 19.1213 20.5355L17.7071 19.1213C17.3166 18.7308 17.3166 18.0976 17.7071 17.7071C18.0976 17.3166 18.7308 17.3166 19.1213 17.7071L20.5355 19.1213C20.9261 19.5118 20.9261 20.145 20.5355 20.5355ZM17.7071 6.53553C18.0976 6.92606 18.7308 6.92606 19.1213 6.53553L20.5355 5.12132C20.9261 4.7308 20.9261 4.09763 20.5355 3.70711C20.145 3.31658 19.5118 3.31658 19.1213 3.70711L17.7071 5.12132C17.3166 5.51184 17.3166 6.14501 17.7071 6.53553ZM3.70711 20.5355C3.31658 20.145 3.31658 19.5118 3.70711 19.1213L5.12132 17.7071C5.51184 17.3166 6.14501 17.3166 6.53553 17.7071C6.92606 18.0976 6.92606 18.7308 6.53553 19.1213L5.12132 20.5355C4.7308 20.9261 4.09763 20.9261 3.70711 20.5355ZM12 7C9.23858 7 7 9.23858 7 12C7 14.7614 9.23858 17 12 17C14.7614 17 17 14.7614 17 12C17 9.23858 14.7614 7 12 7Z" fill="black"/>
</g>
</svg>
