<svg width="24" height="24" viewBox="0 0 24 24" fill="none" xmlns="http://www.w3.org/2000/svg">
<g id="tag">
<path id="Subtract" fill-rule="evenodd" clip-rule="evenodd" d="M11.1047 3.32236C10.8983 3.11595 10.6184 3 10.3265 3L4.10059 3C3.49275 3 3 3.49275 3 4.10059L3 10.3265C3 10.6184 3.11596 10.8983 3.32236 11.1047L13.8953 21.6776C14.3251 22.1075 15.022 22.1075 15.4518 21.6776L21.6776 15.4518C22.1075 15.022 22.1075 14.3251 21.6776 13.8953L11.1047 3.32236ZM6.1129 9.22584C6.97251 10.0855 8.36622 10.0855 9.22584 9.22584C10.0855 8.36622 10.0855 6.97251 9.22584 6.1129C8.36622 5.25328 6.97251 5.25328 6.1129 6.1129C5.25328 6.97251 5.25328 8.36622 6.1129 9.22584Z" fill="black"/>
</g>
</svg>
