<svg width="24" height="24" viewBox="0 0 24 24" fill="none" xmlns="http://www.w3.org/2000/svg">
<g id="trash">
<path id="Subtract" fill-rule="evenodd" clip-rule="evenodd" d="M18 4H13.7247C13.5338 3.35261 13.2669 2.53382 13 2H11C10.7331 2.53382 10.4662 3.35261 10.2753 4H6C5.44772 4 5 4.44772 5 5C5 5.55228 5.44772 6 6 6H18C18.5523 6 19 5.55228 19 5C19 4.44772 18.5523 4 18 4ZM18 7H6V19.1521C6 19.7043 6.44771 20.1521 7 20.1521H17C17.5523 20.1521 18 19.7043 18 19.1521V7ZM9 9.5C9 9.22386 9.22386 9 9.5 9H10.5C10.7761 9 11 9.22386 11 9.5V17.5C11 17.7761 10.7761 18 10.5 18H9.5C9.22386 18 9 17.7761 9 17.5V9.5ZM13 9.5C13 9.22386 13.2239 9 13.5 9H14.5C14.7761 9 15 9.22386 15 9.5V17.5C15 17.7761 14.7761 18 14.5 18H13.5C13.2239 18 13 17.7761 13 17.5V9.5Z" fill="black"/>
</g>
</svg>
