<svg width="24" height="24" viewBox="0 0 24 24" fill="none" xmlns="http://www.w3.org/2000/svg">
<g id="unequal">
<g id="Vector">
<path d="M18.336 3.35871C18.8143 3.63485 18.9781 4.24644 18.702 4.72473L16.811 8L20.3388 8.00003C20.8911 8.00003 21.3388 8.44774 21.3388 9.00003C21.3388 9.55231 20.8911 10 20.3388 10L15.6563 10L13.3469 14L20.3388 14C20.8911 14 21.3388 14.4477 21.3388 15C21.3388 15.5523 20.8911 16 20.3388 16L12.1929 15.9988L10.202 19.4472C9.92584 19.9255 9.31425 20.0893 8.83596 19.8132C8.35767 19.537 8.19379 18.9255 8.46994 18.4472L16.9699 3.72473C17.2461 3.24644 17.8577 3.08256 18.336 3.35871Z" fill="black"/>
<path d="M4.33884 8.00002L12.1929 8.00002L11.0389 10L4.33884 10C3.78655 10 3.33884 9.55231 3.33884 9.00002C3.33884 8.44774 3.78655 8.00002 4.33884 8.00002Z" fill="black"/>
<path d="M4.33884 14H8.73096L7.57698 16H4.33884C3.78655 16 3.33884 15.5523 3.33884 15C3.33884 14.4477 3.78655 14 4.33884 14Z" fill="black"/>
</g>
</g>
</svg>
