<svg width="24" height="24" viewBox="0 0 24 24" fill="none" xmlns="http://www.w3.org/2000/svg">
<g id="unlock">
<path id="unlock_2" fill-rule="evenodd" clip-rule="evenodd" d="M8 10V12H16H19V18V19C19 19.5523 18.5523 20 18 20H6C5.44772 20 5 19.5523 5 19V18V12V10C5 6.13401 8.13401 3 12 3C14.1016 3 15.9869 3.92615 17.27 5.39257C17.4433 5.59068 17.4122 5.88933 17.2141 6.06268L15.7225 7.36779C15.4973 7.56485 15.152 7.51897 14.9498 7.29833C14.2185 6.50034 13.1677 6 12 6C9.79086 6 8 7.79086 8 10Z" fill="black"/>
</g>
</svg>
