<svg width="24" height="24" viewBox="0 0 24 24" fill="none" xmlns="http://www.w3.org/2000/svg">
<g id="writing">
<path id="Union" fill-rule="evenodd" clip-rule="evenodd" d="M3 7C2.44772 7 2 6.55228 2 6C2 5.44771 2.44772 5 3 5L13.9988 5C13.9992 5 13.9996 5 14 5H21C21.5523 5 22 5.44772 22 6C22 6.55228 21.5523 7 21 7H19.0014C19.0009 7 19.0005 7 19 7L14 7H3ZM3 19C2.44772 19 2 18.5523 2 18C2 17.4477 2.44772 17 3 17H13C13.5523 17 14 17.4477 14 18C14 18.5523 13.5523 19 13 19H3ZM2 14C2 14.5523 2.44772 15 3 15L19 15C19.5523 15 20 14.5523 20 14C20 13.4477 19.5523 13 19 13L3 13C2.44772 13 2 13.4477 2 14ZM3 11C2.44772 11 2 10.5523 2 10C2 9.44771 2.44772 9 3 9L16 9C16.5523 9 17 9.44772 17 10C17 10.5523 16.5523 11 16 11L3 11Z" fill="black"/>
</g>
</svg>
