<svg width="24" height="24" viewBox="0 0 24 24" fill="none" xmlns="http://www.w3.org/2000/svg">
<g id="x-apple">
<path id="Vector" d="M19.489 8.47775C19.375 8.56326 17.3625 9.65967 17.3625 12.0976C17.3625 14.9175 19.9234 15.9151 20 15.9398C19.9882 16.0006 19.5932 17.306 18.6498 18.6362C17.8086 19.8067 16.9301 20.9753 15.5937 20.9753C14.2572 20.9753 13.9133 20.2247 12.3705 20.2247C10.867 20.2247 10.3324 21 9.10994 21C7.88748 21 7.03452 19.9169 6.0538 18.5868C4.91782 17.0248 4 14.5983 4 12.2952C4 8.60126 6.48422 6.64216 8.92912 6.64216C10.2282 6.64216 11.3111 7.46685 12.1268 7.46685C12.9031 7.46685 14.1137 6.59276 15.5917 6.59276C16.1518 6.59276 18.1644 6.64216 19.489 8.47775ZM14.8901 5.0289C15.5013 4.32773 15.9337 3.35484 15.9337 2.38194C15.9337 2.24702 15.9219 2.11021 15.8963 2C14.9019 2.0361 13.7187 2.64036 13.0053 3.44034C12.4452 4.05601 11.9224 5.0289 11.9224 6.0151C11.9224 6.16332 11.9479 6.31153 11.9597 6.35904C12.0226 6.37044 12.1248 6.38374 12.227 6.38374C13.1193 6.38374 14.2415 5.80608 14.8901 5.0289Z" fill="black"/>
</g>
</svg>
