<svg width="24" height="24" viewBox="0 0 24 24" fill="none" xmlns="http://www.w3.org/2000/svg">
<g id="x-discord">
<path id="Vector" d="M19.6361 5.25623C18.1907 4.66091 16.6648 4.23857 15.0973 4C14.8828 4.34494 14.6888 4.69983 14.5159 5.0632C12.8463 4.83686 11.1484 4.83686 9.47881 5.0632C9.30587 4.69987 9.1118 4.34498 8.8974 4C7.32897 4.24059 5.80205 4.66393 4.35518 5.25934C1.48276 9.0825 0.70409 12.8107 1.09342 16.486C2.77558 17.6041 4.6584 18.4544 6.66003 19C7.11074 18.4547 7.50956 17.8761 7.85226 17.2705C7.20135 17.0518 6.57311 16.782 5.9748 16.4642C6.13227 16.3615 6.28627 16.2556 6.43508 16.1529C8.17601 16.8894 10.0761 17.2713 12 17.2713C13.9238 17.2713 15.8239 16.8894 17.5648 16.1529C17.7154 16.2634 17.8694 16.3692 18.0251 16.4642C17.4257 16.7825 16.7963 17.0529 16.1442 17.2721C16.4865 17.8774 16.8853 18.4555 17.3364 19C19.3398 18.4566 21.224 17.6067 22.9065 16.4875C23.3633 12.2254 22.1261 8.53144 19.6361 5.25623ZM8.34541 14.2257C7.26047 14.2257 6.36414 13.34 6.36414 12.2503C6.36414 11.1606 7.22932 10.2671 8.34195 10.2671C9.45458 10.2671 10.344 11.1606 10.325 12.2503C10.3059 13.34 9.45112 14.2257 8.34541 14.2257ZM15.6545 14.2257C14.5678 14.2257 13.675 13.34 13.675 12.2503C13.675 11.1606 14.5401 10.2671 15.6545 10.2671C16.7689 10.2671 17.6514 11.1606 17.6323 12.2503C17.6133 13.34 16.7602 14.2257 15.6545 14.2257Z" fill="black"/>
</g>
</svg>
