<svg width="24" height="24" viewBox="0 0 24 24" fill="none" xmlns="http://www.w3.org/2000/svg">
<g id="x-helios">
<path id="Union" fill-rule="evenodd" clip-rule="evenodd" d="M3.55192 6.49819C3.19689 6.14316 3.19689 5.56756 3.55192 5.21254L5.21255 3.55191C5.56757 3.19689 6.14317 3.19689 6.49819 3.55191L9.52869 6.5824C9.67186 6.72558 9.91667 6.62418 9.91667 6.4217V2.90909C9.91667 2.40701 10.3237 2 10.8258 2H13.1742C13.6763 2 14.0833 2.40701 14.0833 2.90909V6.21592C14.0833 6.4184 14.3281 6.5198 14.4713 6.37663L17.296 3.55191C17.6511 3.19689 18.2267 3.19689 18.5817 3.55191L20.2423 5.21254C20.5973 5.56756 20.5973 6.14316 20.2423 6.49819L17.2118 9.52869C17.0686 9.67186 17.17 9.91666 17.3725 9.91666H21.0909C21.593 9.91666 22 10.3237 22 10.8258V13.1742C22 13.6763 21.593 14.0833 21.0909 14.0833H17.5783C17.3758 14.0833 17.2744 14.3281 17.4176 14.4713L20.4481 17.5018C20.8031 17.8568 20.8031 18.4324 20.4481 18.7875L18.7875 20.4481C18.4324 20.8031 17.8568 20.8031 17.5018 20.4481L14.4713 17.4176C14.3281 17.2744 14.0833 17.3758 14.0833 17.5783V21.0909C14.0833 21.593 13.6763 22 13.1742 22H10.8258C10.3237 22 9.91667 21.593 9.91667 21.0909V17.3725C9.91667 17.17 9.67186 17.0686 9.52869 17.2118L6.29239 20.4481C5.93737 20.8031 5.36176 20.8031 5.00674 20.4481L3.34611 18.7875C2.99109 18.4324 2.99109 17.8568 3.34611 17.5018L6.37661 14.4713C6.51978 14.3281 6.41838 14.0833 6.2159 14.0833H2.90909C2.40701 14.0833 2 13.6763 2 13.1742L2 10.8258C2 10.3237 2.40702 9.91666 2.90909 9.91666H6.42171C6.62418 9.91666 6.72559 9.67186 6.58241 9.52869L3.55192 6.49819Z" fill="black"/>
</g>
</svg>
