<svg width="24" height="24" viewBox="0 0 24 24" fill="none" xmlns="http://www.w3.org/2000/svg">
<g id="x-instagram">
<path id="Vector" d="M8 3C5.243 3 3 5.243 3 8V16C3 18.757 5.243 21 8 21H16C18.757 21 21 18.757 21 16V8C21 5.243 18.757 3 16 3H8ZM8 5H16C17.654 5 19 6.346 19 8V16C19 17.654 17.654 19 16 19H8C6.346 19 5 17.654 5 16V8C5 6.346 6.346 5 8 5ZM17 6C16.7348 6 16.4804 6.10536 16.2929 6.29289C16.1054 6.48043 16 6.73478 16 7C16 7.26522 16.1054 7.51957 16.2929 7.70711C16.4804 7.89464 16.7348 8 17 8C17.2652 8 17.5196 7.89464 17.7071 7.70711C17.8946 7.51957 18 7.26522 18 7C18 6.73478 17.8946 6.48043 17.7071 6.29289C17.5196 6.10536 17.2652 6 17 6ZM12 7C9.243 7 7 9.243 7 12C7 14.757 9.243 17 12 17C14.757 17 17 14.757 17 12C17 9.243 14.757 7 12 7ZM12 9C13.654 9 15 10.346 15 12C15 13.654 13.654 15 12 15C10.346 15 9 13.654 9 12C9 10.346 10.346 9 12 9Z" fill="black"/>
</g>
</svg>
