<svg width="24" height="24" viewBox="0 0 24 24" fill="none" xmlns="http://www.w3.org/2000/svg">
<g id="x-mastodon">
<path id="x-mastodon_2" d="M12.4465 2.00025C9.83774 2.01047 7.2475 2.33045 5.89973 2.93078C5.89973 2.93078 3 4.20603 3 8.54982C3 13.7205 2.99611 20.2139 7.80421 21.4697C9.64557 21.9478 11.2291 22.0507 12.5021 21.9798C14.8125 21.8538 15.9552 21.1698 15.9552 21.1698L15.8776 19.5206C15.8776 19.5206 14.3801 20.0304 12.5258 19.972C10.6887 19.9095 8.75339 19.7763 8.45197 17.5601C8.42433 17.3541 8.41062 17.1454 8.41148 16.9376C12.3041 17.8713 15.6234 17.3443 16.5371 17.2375C19.0884 16.9379 21.3094 15.3924 21.5927 13.9798C22.0366 11.7537 21.9992 8.54982 21.9992 8.54982C21.9992 4.20603 19.1046 2.93078 19.1046 2.93078C17.6834 2.28956 15.0552 1.99003 12.4465 2.00025ZM9.6547 5.31333C10.5485 5.33648 11.4317 5.7228 11.9758 6.53883L12.5021 7.40254L13.0268 6.53883C14.1193 4.8976 16.568 5.00001 17.7331 6.26994C18.8075 7.47812 18.5681 8.2579 18.5681 13.6555V13.6571H16.4545V8.96049C16.4545 6.76189 13.5531 6.67698 13.5531 9.26523V11.9867H11.4529V9.26523C11.4529 6.67698 8.55318 6.76026 8.55318 8.95886V13.6555H6.43447C6.43447 8.25373 6.19937 7.46894 7.26947 6.26994C7.85634 5.6308 8.76091 5.29018 9.6547 5.31333Z" fill="black"/>
</g>
</svg>
