<svg width="24" height="24" viewBox="0 0 24 24" fill="none" xmlns="http://www.w3.org/2000/svg">
<g id="x-snapchat">
<path id="Vector" d="M7.37166 6.88323C6.92165 7.8942 7.0994 9.70553 7.17141 10.9723C6.6854 11.2423 6.06138 10.7684 5.70813 10.7684C5.34062 10.7684 4.90186 11.0106 4.83286 11.3717C4.78336 11.6319 4.89961 12.0111 5.73363 12.3413C6.05613 12.4692 6.8234 12.6196 7.00115 13.0393C7.25091 13.6291 5.71863 16.3513 3.31258 16.7485C3.12433 16.7793 2.99008 16.9478 3.00058 17.1389C3.04258 17.8723 4.68211 18.1596 5.40887 18.2725C5.48312 18.3733 5.54312 18.799 5.63838 19.1232C5.68113 19.2684 5.79138 19.4422 6.07488 19.4422C6.44464 19.4422 7.0589 19.1563 8.12842 19.3338C9.17694 19.5091 10.1625 21 12.0548 21C13.8135 21 14.8628 19.5023 15.8723 19.3338C16.4566 19.2368 16.9583 19.2677 17.5194 19.3775C17.9056 19.4535 18.2521 19.4956 18.3624 19.115C18.4591 18.7862 18.5184 18.3688 18.5911 18.2702C19.3111 18.1581 20.9582 17.8715 20.9994 17.1381C21.0099 16.9471 20.8757 16.7793 20.6874 16.7477C18.3219 16.3566 16.7431 13.6426 16.9988 13.0386C17.1758 12.6196 17.9379 12.4707 18.2664 12.3405C18.8769 12.0991 19.1829 11.8019 19.1761 11.4582C19.1679 11.0181 18.6399 10.7556 18.2514 10.7556C17.8561 10.7556 17.2884 11.225 16.8286 10.9708C16.9006 9.6935 17.0776 7.89044 16.6283 6.88022C15.7771 4.96735 13.8833 4 11.9902 4C10.1092 4 8.22968 4.95381 7.37166 6.88323Z" fill="black"/>
</g>
</svg>
