<svg width="24" height="24" viewBox="0 0 24 24" fill="none" xmlns="http://www.w3.org/2000/svg">
<g id="x-sora">
<path id="x-sora_2" d="M11.9818 22C11.8269 21.9998 11.6752 21.9567 11.5434 21.8755C11.4116 21.7942 11.305 21.6779 11.2354 21.5396L9.41814 17.9126C8.69123 16.4617 7.51335 15.2858 6.06131 14.5612L2.42463 12.7466C1.85846 12.4633 1.85846 11.5389 2.42463 11.2562L6.06131 9.44154C7.51335 8.717 8.69123 7.54104 9.41814 6.09018L11.2354 2.46312C11.3043 2.32405 11.4108 2.20701 11.5427 2.12518C11.6746 2.04336 11.8268 2 11.982 2C12.1373 2 12.2894 2.04336 12.4213 2.12518C12.5533 2.20701 12.6597 2.32405 12.7287 2.46312L14.5459 6.09018C15.2728 7.54104 16.4507 8.717 17.9027 9.44154L21.5394 11.2562C21.6778 11.3254 21.7942 11.4318 21.8756 11.5634C21.9569 11.695 22 11.8467 22 12.0014C22 12.1561 21.9569 12.3078 21.8756 12.4394C21.7942 12.571 21.6778 12.6774 21.5394 12.7466L17.9033 14.561C16.4509 15.2857 15.2728 16.462 14.5459 17.9133L12.7297 21.5396C12.6599 21.6781 12.553 21.7945 12.421 21.8758C12.2889 21.9571 12.1368 22.0001 11.9818 22Z" fill="black"/>
</g>
</svg>
