<svg width="24" height="24" viewBox="0 0 24 24" fill="none" xmlns="http://www.w3.org/2000/svg">
<g id="x-telegram">
<path id="telegram-1" fill-rule="evenodd" clip-rule="evenodd" d="M16.554 19.8233C16.8089 20.0057 17.1374 20.0513 17.4303 19.9393C17.7232 19.8265 17.9386 19.5737 18.0035 19.2673C18.6914 16.0001 20.3602 7.73052 20.9864 4.75852C21.0339 4.53452 20.9548 4.30172 20.7806 4.15212C20.6064 4.00252 20.365 3.95932 20.1497 4.04012C16.8303 5.28172 6.60771 9.15772 2.42939 10.7201C2.16419 10.8193 1.99161 11.0769 2.00031 11.3593C2.00981 11.6425 2.19823 11.8881 2.46976 11.9705C4.3436 12.5369 6.80325 13.3249 6.80325 13.3249C6.80325 13.3249 7.95272 16.8329 8.552 18.6169C8.62721 18.8409 8.80058 19.0169 9.02936 19.0777C9.25736 19.1377 9.50119 19.0745 9.67139 18.9121C10.634 17.9937 12.1223 16.5737 12.1223 16.5737C12.1223 16.5737 14.9501 18.6689 16.554 19.8233ZM7.83793 12.8817L9.16711 17.3121L9.4624 14.5065C9.4624 14.5065 14.5978 9.82573 17.5253 7.15772C17.6108 7.07932 17.6227 6.94812 17.5515 6.85612C17.481 6.76412 17.3512 6.74252 17.2538 6.80492C13.8608 8.99452 7.83793 12.8817 7.83793 12.8817Z" fill="black"/>
</g>
</svg>
