<svg width="24" height="24" viewBox="0 0 24 24" fill="none" xmlns="http://www.w3.org/2000/svg">
<g id="x-thebe">
<path id="Union" fill-rule="evenodd" clip-rule="evenodd" d="M18.4177 3.44305C19.0084 2.85232 19.9662 2.85232 20.5569 3.44305C21.1477 4.03379 21.1477 4.99156 20.5569 5.58229L18.3551 7.78416C17.4874 8.65181 17 9.8286 17 11.0556V12.9444C17 14.1714 17.4874 15.3482 18.3551 16.2159L20.5569 18.4177C21.1477 19.0084 21.1477 19.9662 20.5569 20.5569C19.9662 21.1477 19.0084 21.1477 18.4177 20.5569L16.2158 18.3551C15.3482 17.4874 14.1714 17 12.9444 17H11.0556C9.8286 17 8.65182 17.4874 7.78417 18.3551L5.5823 20.5569C4.99157 21.1477 4.0338 21.1477 3.44306 20.5569C2.85233 19.9662 2.85233 19.0084 3.44307 18.4177L5.64492 16.2159C6.51256 15.3482 7 14.1714 7 12.9444V11.0556C7 9.82859 6.51256 8.6518 5.64491 7.78415L3.44305 5.58229C2.85232 4.99155 2.85232 4.03378 3.44305 3.44305C4.03378 2.85232 4.99155 2.85232 5.58229 3.44305L7.78414 5.6449C8.65178 6.51255 9.82857 6.99999 11.0556 6.99999H12.9444C14.1714 6.99999 15.3482 6.51255 16.2159 5.6449L18.4177 3.44305Z" fill="black"/>
</g>
</svg>
