<svg width="24" height="24" viewBox="0 0 24 24" fill="none" xmlns="http://www.w3.org/2000/svg">
<g id="x-twitter">
<path id="x-twitter_2" d="M22 6.01226C21.2639 6.3542 20.4731 6.58432 19.6432 6.68811C20.4908 6.15708 21.1408 5.3163 21.4469 4.31379C20.6547 4.80539 19.7762 5.16262 18.8409 5.35572C18.0925 4.52137 17.0263 4 15.8464 4C13.5803 4 11.7435 5.92215 11.7435 8.29164C11.7435 8.62795 11.7804 8.95622 11.8496 9.2692C8.43975 9.09059 5.41679 7.38166 3.39225 4.78447C3.03996 5.41848 2.83766 6.15547 2.83766 6.94316C2.83766 8.43163 3.56148 9.74552 4.66221 10.5147C3.98992 10.4922 3.35687 10.2991 2.80382 9.97804V10.0319C2.80382 12.1118 4.21761 13.8465 6.09523 14.2399C5.75139 14.3381 5.38833 14.3904 5.01373 14.3904C4.74989 14.3904 4.49221 14.363 4.24222 14.3139C4.76451 16.0188 6.27984 17.2603 8.07515 17.2949C6.67136 18.4463 4.9022 19.1326 2.97919 19.1326C2.64844 19.1326 2.32153 19.1125 2 19.0722C3.81608 20.2896 5.97216 21 8.28976 21C15.8372 21 19.9632 14.4604 19.9632 8.78887C19.9632 8.60301 19.9593 8.41796 19.9516 8.23371C20.7539 7.62786 21.45 6.87236 22 6.01226Z" fill="black"/>
</g>
</svg>
