<svg width="24" height="24" viewBox="0 0 24 24" fill="none" xmlns="http://www.w3.org/2000/svg">
<g id="x-youtube">
<path id="Vector" d="M21.4417 7.57812C21.2568 6.54724 20.3759 5.79651 19.3536 5.56213C17.8238 5.23437 14.9926 5 11.9293 5C8.86786 5 5.9913 5.23437 4.45967 5.56213C3.43919 5.79651 2.55646 6.49963 2.37158 7.57812C2.18488 8.75 2 10.3906 2 12.5C2 14.6094 2.18488 16.25 2.41689 17.4219C2.60359 18.4528 3.4845 19.2035 4.50499 19.4379C6.12906 19.7656 8.91318 20 11.9764 20C15.0397 20 17.8238 19.7656 19.4479 19.4379C20.4684 19.2035 21.3493 18.5004 21.536 17.4219C21.7209 16.25 21.9529 14.5618 22 12.5C21.9057 10.3906 21.6737 8.75 21.4417 7.57812ZM9.42432 15.7812V9.21875L15.085 12.5L9.42432 15.7812Z" fill="black"/>
</g>
</svg>
