<svg width="24" height="24" viewBox="0 0 24 24" fill="none" xmlns="http://www.w3.org/2000/svg">
<g id="x" clip-path="url(#clip0_107_26)">
<path id="x_2" fill-rule="evenodd" clip-rule="evenodd" d="M19.7782 4.22182C20.1687 4.61235 20.1687 5.24551 19.7782 5.63604L14.1224 11.2918C14.122 11.2922 14.1217 11.2925 14.1213 11.2929C13.7308 11.6834 13.7308 12.3166 14.1213 12.7071C14.1218 12.7076 14.1223 12.7081 14.1228 12.7085L19.7782 18.364C20.1687 18.7545 20.1687 19.3876 19.7782 19.7782C19.3877 20.1687 18.7545 20.1687 18.364 19.7782L12.7086 14.1228C12.7081 14.1223 12.7076 14.1218 12.7071 14.1213C12.3166 13.7308 11.6834 13.7308 11.2929 14.1213C11.2926 14.1216 11.2923 14.1219 11.292 14.1222L5.63604 19.7782C5.24551 20.1687 4.61235 20.1687 4.22182 19.7782C3.8313 19.3876 3.8313 18.7545 4.22182 18.364L9.87763 12.7082C9.87797 12.7078 9.87833 12.7075 9.87868 12.7071C10.2684 12.3174 10.2692 11.686 9.88109 11.2953L4.22183 5.63604C3.8313 5.24551 3.8313 4.61235 4.22183 4.22182C4.61235 3.8313 5.24551 3.8313 5.63604 4.22182L11.2912 9.87699C11.2918 9.87754 11.2923 9.87811 11.2929 9.87868C11.6828 10.2685 12.3145 10.2692 12.7051 9.88065L18.364 4.22182C18.7545 3.8313 19.3877 3.8313 19.7782 4.22182Z" fill="black"/>
</g>
<defs>
<clipPath id="clip0_107_26">
<rect width="24" height="24" fill="white"/>
</clipPath>
</defs>
</svg>
